<svg xmlns="http://www.w3.org/2000/svg" viewBox="0.00 0.00 4703.00 5443.00" role="img" aria-labelledby="t d">
<defs><marker id="arrow" viewBox="0 0 10 10" refX="9" refY="5" markerWidth="8" markerHeight="8" orient="auto-start-reverse"><path d="M0,0 L10,5 L0,10 z" fill="#e2e8f0" /></marker><style>
  /* Box fills are pale pastels; text is solid #0d0d0d for maximum legibility
     regardless of the host theme (light or dark). We do NOT use the
     --text-primary CSS variable here because in a dark theme it can resolve
     to a near-white that then sits on top of a near-white pastel fill and
     becomes unreadable. The pastels are constants, so the text color can be
     a constant too. */
  .box        { fill: var(--bg-200, #f3f3f0); stroke: var(--border, #d6d3cf); stroke-width: 1.2; }
  .accent     { fill: var(--accent-100, #e8e6e1); stroke: var(--border, #a59f96); stroke-width: 2.0; }
  .tier-data         { fill: #dde7f0; stroke: #6b8aab; }
  .tier-compute      { fill: #e0ecd9; stroke: #75986a; }
  .tier-control      { fill: #ecdff0; stroke: #9b6fa7; }
  .tier-observability{ fill: #f5dcdc; stroke: #a96f6f; }
  .tier-storage      { fill: #f5ecd0; stroke: #a98947; }
  .tier-parallel     { fill: #dde7f0; stroke: #6b8aab; }
  .tier-kernel       { fill: #e0ecd9; stroke: #75986a; }
  .tier-decode       { fill: #ecdff0; stroke: #9b6fa7; }
  .tier-output       { fill: #f5ecd0; stroke: #a98947; }
  /* Foundational nodes — present in the Basic Interview Sketch (the simplest
     diagram that would pass 90% of technical interviews) AND echoed in
     exhaustive diagrams. The accent border + outer drop-shadow glow lets a
     reader sweeping the deep-dive diagrams instantly see which boxes carry
     the whiteboard answer and which are extra-credit material. The selectors
     below have higher specificity than the .tier-* rules above (class.class
     beats single class), so they win on stroke. The filter is applied at the
     node-level &lt;g&gt; so the glow sits behind the box and its text. */
  .node.foundational &gt; path,
  .node.foundational &gt; polygon,
  .node.foundational &gt; ellipse,
  .node.foundational &gt; rect {
    stroke: #c2410c;
    stroke-width: 3.2;
  }
  .node.foundational {
    filter: drop-shadow(0 0 3px rgba(194, 65, 12, 0.55));
  }
  /* Solid dark text for legibility on pastel fills. Accent ellipses get an
     extra weight + size bump because their text otherwise looks small inside
     a large oval. */
  .node text         { fill: #0d0d0d; font: 700 13px system-ui, sans-serif; }
  .node.accent text  { fill: #0d0d0d; font: 800 14px system-ui, sans-serif; letter-spacing: 0.1px; }
  /* High-contrast edges that read on BOTH dark and light backgrounds.
     The previous edge stroke (#4a4a48) disappeared on dark themes because
     the chat surface is near-black. A bright slate stroke (#e2e8f0) at width
     2.2, with a matching arrowhead fill and labels carrying a dark halo via
     paint-order: stroke, is visible on dark backgrounds and still readable
     on top of the pale pastel box fills in light mode. The marker fill in
     style_svg below was bumped to the same #e2e8f0 for the same reason. */
  .edge path, .edge polyline {
    fill: none; stroke: #e2e8f0; stroke-width: 2.2;
  }
  .edge polygon { fill: #e2e8f0; stroke: #e2e8f0; }
  .edge-ctrl path, .edge-ctrl polyline {
    fill: none; stroke: #e2e8f0; stroke-width: 2.0;
    stroke-dasharray: 6 4;
  }
  .edge-ctrl polygon { fill: #e2e8f0; stroke: #e2e8f0; }
  .edge text, .edge-ctrl text {
    fill: #f1f5f9; font: 700 12px system-ui, sans-serif;
    paint-order: stroke; stroke: rgba(15, 23, 42, 0.85); stroke-width: 3px;
  }
</style></defs><title id="t">Crucible · combined system overview (fdp)</title><desc id="d">Force-directed clustered layout</desc><g id="graph0" class="graph" transform="scale(1 1) rotate(0) translate(43.2 5400.03)">
<g id="clust1" class="cluster">
<path stroke-dasharray="5,2" d="M1215.45,-2220.18C1215.45,-2220.18 1772.04,-2220.18 1772.04,-2220.18 1778.04,-2220.18 1784.04,-2226.18 1784.04,-2232.18 1784.04,-2232.18 1784.04,-3038.48 1784.04,-3038.48 1784.04,-3044.48 1778.04,-3050.48 1772.04,-3050.48 1772.04,-3050.48 1215.45,-3050.48 1215.45,-3050.48 1209.45,-3050.48 1203.45,-3044.48 1203.45,-3038.48 1203.45,-3038.48 1203.45,-2232.18 1203.45,-2232.18 1203.45,-2226.18 1209.45,-2220.18 1215.45,-2220.18" />
<text xml:space="preserve" text-anchor="start" x="1470.87" y="-3037.03" font-family="Helvetica,sans-Serif" font-weight="bold" font-size="11.00" fill="#c0584f">Red side</text>
</g>
<g id="clust2" class="cluster">
<path d="M1229.45,-2234.18C1229.45,-2234.18 1619.3,-2234.18 1619.3,-2234.18 1625.3,-2234.18 1631.3,-2240.18 1631.3,-2246.18 1631.3,-2246.18 1631.3,-2590.85 1631.3,-2590.85 1631.3,-2596.85 1625.3,-2602.85 1619.3,-2602.85 1619.3,-2602.85 1229.45,-2602.85 1229.45,-2602.85 1223.45,-2602.85 1217.45,-2596.85 1217.45,-2590.85 1217.45,-2590.85 1217.45,-2246.18 1217.45,-2246.18 1217.45,-2240.18 1223.45,-2234.18 1229.45,-2234.18" />
<text xml:space="preserve" text-anchor="start" x="1334" y="-2589.4" font-family="Helvetica,sans-Serif" font-weight="bold" font-size="11.00" fill="#c0584f">Red Agent  ·  LLM semantic search</text>
</g>
<g id="clust3" class="cluster">
<path stroke-dasharray="5,2" d="M4109.49,-2342.42C4109.49,-2342.42 4604.33,-2342.42 4604.33,-2342.42 4610.33,-2342.42 4616.33,-2348.42 4616.33,-2354.42 4616.33,-2354.42 4616.33,-2808.19 4616.33,-2808.19 4616.33,-2814.19 4610.33,-2820.19 4604.33,-2820.19 4604.33,-2820.19 4109.49,-2820.19 4109.49,-2820.19 4103.49,-2820.19 4097.49,-2814.19 4097.49,-2808.19 4097.49,-2808.19 4097.49,-2354.42 4097.49,-2354.42 4097.49,-2348.42 4103.49,-2342.42 4109.49,-2342.42" />
<text xml:space="preserve" text-anchor="start" x="4232.03" y="-2806.74" font-family="Helvetica,sans-Serif" font-weight="bold" font-size="11.00" fill="#94a3b8">Producer Zone  ·  sandboxed, no path to verifier</text>
</g>
<g id="clust4" class="cluster">
<path stroke-dasharray="5,2" d="M2385.66,0C2385.66,0 3153.54,0 3153.54,0 3159.54,0 3165.54,-6 3165.54,-12 3165.54,-12 3165.54,-910.31 3165.54,-910.31 3165.54,-916.31 3159.54,-922.31 3153.54,-922.31 3153.54,-922.31 2385.66,-922.31 2385.66,-922.31 2379.66,-922.31 2373.66,-916.31 2373.66,-910.31 2373.66,-910.31 2373.66,-12 2373.66,-12 2373.66,-6 2379.66,0 2385.66,0" />
<text xml:space="preserve" text-anchor="start" x="2646.98" y="-908.86" font-family="Helvetica,sans-Serif" font-weight="bold" font-size="11.00" fill="#8b7fd4">Sealed Verification Zone  ·  no producer path in</text>
</g>
<g id="clust5" class="cluster">
<path stroke-dasharray="5,2" d="M2679.41,-4878.27C2679.41,-4878.27 3311.34,-4878.27 3311.34,-4878.27 3317.34,-4878.27 3323.34,-4884.27 3323.34,-4890.27 3323.34,-4890.27 3323.34,-5344.83 3323.34,-5344.83 3323.34,-5350.83 3317.34,-5356.83 3311.34,-5356.83 3311.34,-5356.83 2679.41,-5356.83 2679.41,-5356.83 2673.41,-5356.83 2667.41,-5350.83 2667.41,-5344.83 2667.41,-5344.83 2667.41,-4890.27 2667.41,-4890.27 2667.41,-4884.27 2673.41,-4878.27 2679.41,-4878.27" />
<text xml:space="preserve" text-anchor="start" x="2905" y="-5343.38" font-family="Helvetica,sans-Serif" font-weight="bold" font-size="11.00" fill="#6366f1">Blue Loop  ·  automated hardening</text>
</g>
<g id="clust6" class="cluster">
<path stroke-dasharray="5,2" d="M12,-160.92C12,-160.92 694.45,-160.92 694.45,-160.92 700.45,-160.92 706.45,-166.92 706.45,-172.92 706.45,-172.92 706.45,-849.1 706.45,-849.1 706.45,-855.1 700.45,-861.1 694.45,-861.1 694.45,-861.1 12,-861.1 12,-861.1 6,-861.1 0,-855.1 0,-849.1 0,-849.1 0,-172.92 0,-172.92 0,-166.92 6,-160.92 12,-160.92" />
<text xml:space="preserve" text-anchor="start" x="249.72" y="-847.65" font-family="Helvetica,sans-Serif" font-weight="bold" font-size="11.00" fill="#94a3b8">Measure  ·  scoreboard + flight recorder</text>
</g>

<g id="node1" class="node tier-compute foundational">
<path d="M1330.62,-2572.85C1330.62,-2572.85 1239.45,-2572.85 1239.45,-2572.85 1233.45,-2572.85 1227.45,-2566.85 1227.45,-2560.85 1227.45,-2560.85 1227.45,-2546.45 1227.45,-2546.45 1227.45,-2540.45 1233.45,-2534.45 1239.45,-2534.45 1239.45,-2534.45 1330.62,-2534.45 1330.62,-2534.45 1336.62,-2534.45 1342.62,-2540.45 1342.62,-2546.45 1342.62,-2546.45 1342.62,-2560.85 1342.62,-2560.85 1342.62,-2566.85 1336.62,-2572.85 1330.62,-2572.85" />
<text xml:space="preserve" text-anchor="middle" x="1285.04" y="-2555.2" font-family="Helvetica,sans-Serif" font-size="11.00">reason</text>
<text xml:space="preserve" text-anchor="middle" x="1285.04" y="-2543.2" font-family="Helvetica,sans-Serif" font-size="11.00">why was I caught?</text>
</g>

<g id="node2" class="node tier-compute">
<path d="M1408.05,-2282.58C1408.05,-2282.58 1270.38,-2282.58 1270.38,-2282.58 1264.38,-2282.58 1258.38,-2276.58 1258.38,-2270.58 1258.38,-2270.58 1258.38,-2256.18 1258.38,-2256.18 1258.38,-2250.18 1264.38,-2244.18 1270.38,-2244.18 1270.38,-2244.18 1408.05,-2244.18 1408.05,-2244.18 1414.05,-2244.18 1420.05,-2250.18 1420.05,-2256.18 1420.05,-2256.18 1420.05,-2270.58 1420.05,-2270.58 1420.05,-2276.58 1414.05,-2282.58 1408.05,-2282.58" />
<text xml:space="preserve" text-anchor="middle" x="1339.21" y="-2264.93" font-family="Helvetica,sans-Serif" font-size="11.00">propose minimal change</text>
<text xml:space="preserve" text-anchor="middle" x="1339.21" y="-2252.93" font-family="Helvetica,sans-Serif" font-size="11.00">preserve intent + constraints</text>
</g>

<g id="edge1" class="edge">
<path d="M1288.68,-2534.15C1298.08,-2483.75 1323.23,-2349.03 1334.09,-2290.81" />
<polygon points="1336.43,-2291.61 1335.31,-2284.28 1331.62,-2290.71 1336.43,-2291.61" />
</g>

<g id="node23" class="node tier-observability">
<path d="M417.67,-506.52C417.67,-506.52 333.25,-506.52 333.25,-506.52 327.25,-506.52 321.25,-500.52 321.25,-494.52 321.25,-494.52 321.25,-480.12 321.25,-480.12 321.25,-474.12 327.25,-468.12 333.25,-468.12 333.25,-468.12 417.67,-468.12 417.67,-468.12 423.67,-468.12 429.67,-474.12 429.67,-480.12 429.67,-480.12 429.67,-494.52 429.67,-494.52 429.67,-500.52 423.67,-506.52 417.67,-506.52" />
<text xml:space="preserve" text-anchor="middle" x="375.46" y="-488.87" font-family="Helvetica,sans-Serif" font-size="11.00">agent step traces</text>
<text xml:space="preserve" text-anchor="middle" x="375.46" y="-476.87" font-family="Helvetica,sans-Serif" font-size="11.00">+ every verdict</text>
</g>

<g id="edge40" class="edge">
<path d="M1276.47,-2534.19C1190.69,-2339.32 487.51,-741.89 387.32,-514.27" />
<polygon points="389.68,-513.56 384.62,-508.14 385.2,-515.54 389.68,-513.56" />
<text xml:space="preserve" text-anchor="middle" x="808.03" y="-1521.48" font-family="Helvetica,sans-Serif" font-size="9.00">step traces</text>
</g>

<g id="node3" class="node tier-compute">
<path d="M1609.3,-2526.45C1609.3,-2526.45 1539.13,-2526.45 1539.13,-2526.45 1533.13,-2526.45 1527.13,-2520.45 1527.13,-2514.45 1527.13,-2514.45 1527.13,-2500.05 1527.13,-2500.05 1527.13,-2494.05 1533.13,-2488.05 1539.13,-2488.05 1539.13,-2488.05 1609.3,-2488.05 1609.3,-2488.05 1615.3,-2488.05 1621.3,-2494.05 1621.3,-2500.05 1621.3,-2500.05 1621.3,-2514.45 1621.3,-2514.45 1621.3,-2520.45 1615.3,-2526.45 1609.3,-2526.45" />
<text xml:space="preserve" text-anchor="middle" x="1574.22" y="-2508.8" font-family="Helvetica,sans-Serif" font-size="11.00">query_target()</text>
<text xml:space="preserve" text-anchor="middle" x="1574.22" y="-2496.8" font-family="Helvetica,sans-Serif" font-size="11.00">score</text>
</g>

<g id="edge2" class="edge">
<path d="M1358.05,-2282.92C1400.24,-2326.71 1502.36,-2432.68 1549.55,-2481.65" />
<polygon points="1547.62,-2483.18 1554.24,-2486.52 1551.15,-2479.78 1547.62,-2483.18" />
</g>

<g id="edge3" class="edge">
<path stroke-dasharray="5,2" d="M1526.79,-2514.86C1478.93,-2522.54 1404.65,-2534.46 1351.05,-2543.06" />
<polygon points="1350.98,-2540.59 1344.46,-2544.11 1351.76,-2545.42 1350.98,-2540.59" />
<text xml:space="preserve" text-anchor="middle" x="1403.34" y="-2530.81" font-family="Helvetica,sans-Serif" font-size="9.00">iterate on score</text>
</g>

<g id="node10" class="node tier-compute foundational">
<path d="M4287.41,-2589.51C4287.41,-2589.51 4123.49,-2589.51 4123.49,-2589.51 4117.49,-2589.51 4111.49,-2583.51 4111.49,-2577.51 4111.49,-2577.51 4111.49,-2563.11 4111.49,-2563.11 4111.49,-2557.11 4117.49,-2551.11 4123.49,-2551.11 4123.49,-2551.11 4287.41,-2551.11 4287.41,-2551.11 4293.41,-2551.11 4299.41,-2557.11 4299.41,-2563.11 4299.41,-2563.11 4299.41,-2577.51 4299.41,-2577.51 4299.41,-2583.51 4293.41,-2589.51 4287.41,-2589.51" />
<text xml:space="preserve" text-anchor="middle" x="4205.45" y="-2571.86" font-family="Helvetica,sans-Serif" font-size="11.00">Target Protocol</text>
<text xml:space="preserve" text-anchor="middle" x="4205.45" y="-2559.86" font-family="Helvetica,sans-Serif" font-size="11.00">submit  ·  query_target  ·  self_test</text>
</g>

<g id="edge31" class="edge">
<path d="M1621.57,-2508.38C1930.2,-2515.78 3656.9,-2557.16 4101.19,-2567.81" />
<polygon points="4101.05,-2570.26 4108.1,-2567.98 4101.16,-2565.36 4101.05,-2570.26" />
<text xml:space="preserve" text-anchor="middle" x="2823.64" y="-2539.42" font-family="Helvetica,sans-Serif" font-size="9.00">submit / query_target</text>
</g>

<g id="node4" class="node tier-control">
<path d="M1385.19,-2820.11C1385.19,-2820.11 1301.52,-2820.11 1301.52,-2820.11 1295.52,-2820.11 1289.52,-2814.11 1289.52,-2808.11 1289.52,-2808.11 1289.52,-2781.71 1289.52,-2781.71 1289.52,-2775.71 1295.52,-2769.71 1301.52,-2769.71 1301.52,-2769.71 1385.19,-2769.71 1385.19,-2769.71 1391.19,-2769.71 1397.19,-2775.71 1397.19,-2781.71 1397.19,-2781.71 1397.19,-2808.11 1397.19,-2808.11 1397.19,-2814.11 1391.19,-2820.11 1385.19,-2820.11" />
<text xml:space="preserve" text-anchor="middle" x="1343.36" y="-2802.46" font-family="Helvetica,sans-Serif" font-size="11.00">white-box mode</text>
<text xml:space="preserve" text-anchor="middle" x="1343.36" y="-2790.46" font-family="Helvetica,sans-Serif" font-size="11.00">scheme revealed</text>
<text xml:space="preserve" text-anchor="middle" x="1343.36" y="-2778.46" font-family="Helvetica,sans-Serif" font-size="11.00">instances hidden</text>
</g>

<g id="edge4" class="edge">
<path stroke-dasharray="5,2" d="M1337.23,-2769.55C1326.21,-2723.99 1303.17,-2628.66 1291.75,-2581.42" />
<polygon points="1294.14,-2580.88 1290.11,-2574.65 1289.38,-2582.03 1294.14,-2580.88" />
<text xml:space="preserve" text-anchor="middle" x="1277.91" y="-2672.75" font-family="Helvetica,sans-Serif" font-size="9.00">augments prompt</text>
</g>

<g id="node5" class="node tier-control">
<path d="M1758.04,-2661.26C1758.04,-2661.26 1659.37,-2661.26 1659.37,-2661.26 1653.37,-2661.26 1647.37,-2655.26 1647.37,-2649.26 1647.37,-2649.26 1647.37,-2622.86 1647.37,-2622.86 1647.37,-2616.86 1653.37,-2610.86 1659.37,-2610.86 1659.37,-2610.86 1758.04,-2610.86 1758.04,-2610.86 1764.04,-2610.86 1770.04,-2616.86 1770.04,-2622.86 1770.04,-2622.86 1770.04,-2649.26 1770.04,-2649.26 1770.04,-2655.26 1764.04,-2661.26 1758.04,-2661.26" />
<text xml:space="preserve" text-anchor="middle" x="1708.7" y="-2643.61" font-family="Helvetica,sans-Serif" font-size="11.00">hybrid fallback</text>
<text xml:space="preserve" text-anchor="middle" x="1708.7" y="-2631.61" font-family="Helvetica,sans-Serif" font-size="11.00">scipy.optimize</text>
<text xml:space="preserve" text-anchor="middle" x="1708.7" y="-2619.61" font-family="Helvetica,sans-Serif" font-size="11.00">constrained numeric</text>
</g>

<g id="edge5" class="edge">
<path stroke-dasharray="5,2" d="M1682.13,-2610.61C1658.52,-2588 1624.2,-2555.12 1600.63,-2532.55" />
<polygon points="1602.43,-2530.88 1595.68,-2527.81 1599.04,-2534.42 1602.43,-2530.88" />
<text xml:space="preserve" text-anchor="middle" x="1598.56" y="-2569.84" font-family="Helvetica,sans-Serif" font-size="9.00">executes proposals</text>
</g>

<g id="node6" class="node tier-data foundational">
<path d="M1717.8,-3016.48C1717.8,-3016.48 1627.38,-3016.48 1627.38,-3016.48 1621.38,-3016.48 1615.38,-3010.48 1615.38,-3004.48 1615.38,-3004.48 1615.38,-2978.08 1615.38,-2978.08 1615.38,-2972.08 1621.38,-2966.08 1627.38,-2966.08 1627.38,-2966.08 1717.8,-2966.08 1717.8,-2966.08 1723.8,-2966.08 1729.8,-2972.08 1729.8,-2978.08 1729.8,-2978.08 1729.8,-3004.48 1729.8,-3004.48 1729.8,-3010.48 1723.8,-3016.48 1717.8,-3016.48" />
<text xml:space="preserve" text-anchor="middle" x="1672.59" y="-2998.83" font-family="Helvetica,sans-Serif" font-size="11.00">Strategy Catalog</text>
<text xml:space="preserve" text-anchor="middle" x="1672.59" y="-2986.83" font-family="Helvetica,sans-Serif" font-size="11.00">persistent memory</text>
<text xml:space="preserve" text-anchor="middle" x="1672.59" y="-2974.83" font-family="Helvetica,sans-Serif" font-size="11.00">across runs</text>
</g>

<g id="edge6" class="edge">
<path stroke-dasharray="5,2" d="M1650.07,-2965.86C1581.57,-2888.5 1376.11,-2656.5 1307.57,-2579.1" />
<polygon points="1309.6,-2577.69 1303.13,-2574.08 1305.93,-2580.94 1309.6,-2577.69" />
<text xml:space="preserve" text-anchor="middle" x="1450.53" y="-2770.52" font-family="Helvetica,sans-Serif" font-size="9.00">reuse tactics</text>
</g>

<g id="node18" class="node tier-compute">
<path d="M3027.58,-5322.83C3027.58,-5322.83 2963.41,-5322.83 2963.41,-5322.83 2957.41,-5322.83 2951.41,-5316.83 2951.41,-5310.83 2951.41,-5310.83 2951.41,-5298.83 2951.41,-5298.83 2951.41,-5292.83 2957.41,-5286.83 2963.41,-5286.83 2963.41,-5286.83 3027.58,-5286.83 3027.58,-5286.83 3033.58,-5286.83 3039.58,-5292.83 3039.58,-5298.83 3039.58,-5298.83 3039.58,-5310.83 3039.58,-5310.83 3039.58,-5316.83 3033.58,-5322.83 3027.58,-5322.83" />
<text xml:space="preserve" text-anchor="middle" x="2995.49" y="-5300.38" font-family="Helvetica,sans-Serif" font-size="11.00">new features</text>
</g>

<g id="edge35" class="edge">
<path d="M1687.22,-3016.87C1822.07,-3252.71 2846.71,-5044.64 2980.99,-5279.47" />
<polygon points="2978.69,-5280.39 2984.3,-5285.25 2982.95,-5277.96 2978.69,-5280.39" />
<text xml:space="preserve" text-anchor="middle" x="2299.86" y="-4153.09" font-family="Helvetica,sans-Serif" font-size="9.00">discovered tactics</text>
</g>

<g id="node19" class="node tier-compute">
<path d="M2971.03,-4930.67C2971.03,-4930.67 2891.11,-4930.67 2891.11,-4930.67 2885.11,-4930.67 2879.11,-4924.67 2879.11,-4918.67 2879.11,-4918.67 2879.11,-4904.27 2879.11,-4904.27 2879.11,-4898.27 2885.11,-4892.27 2891.11,-4892.27 2891.11,-4892.27 2971.03,-4892.27 2971.03,-4892.27 2977.03,-4892.27 2983.03,-4898.27 2983.03,-4904.27 2983.03,-4904.27 2983.03,-4918.67 2983.03,-4918.67 2983.03,-4924.67 2977.03,-4930.67 2971.03,-4930.67" />
<text xml:space="preserve" text-anchor="middle" x="2931.07" y="-4913.02" font-family="Helvetica,sans-Serif" font-size="11.00">adversarial</text>
<text xml:space="preserve" text-anchor="middle" x="2931.07" y="-4901.02" font-family="Helvetica,sans-Serif" font-size="11.00">training samples</text>
</g>

<g id="edge36" class="edge">
<path d="M1689.42,-3016.98C1827.64,-3227.87 2773.6,-4671.2 2913.74,-4885.02" />
<polygon points="2911.48,-4886.05 2917.37,-4890.56 2915.58,-4883.36 2911.48,-4886.05" />
</g>

<g id="node20" class="node tier-compute">
<path d="M2741.83,-5198.23C2741.83,-5198.23 2693.41,-5198.23 2693.41,-5198.23 2687.41,-5198.23 2681.41,-5192.23 2681.41,-5186.23 2681.41,-5186.23 2681.41,-5171.83 2681.41,-5171.83 2681.41,-5165.83 2687.41,-5159.83 2693.41,-5159.83 2693.41,-5159.83 2741.83,-5159.83 2741.83,-5159.83 2747.83,-5159.83 2753.83,-5165.83 2753.83,-5171.83 2753.83,-5171.83 2753.83,-5186.23 2753.83,-5186.23 2753.83,-5192.23 2747.83,-5198.23 2741.83,-5198.23" />
<text xml:space="preserve" text-anchor="middle" x="2717.62" y="-5180.58" font-family="Helvetica,sans-Serif" font-size="11.00">specialist</text>
<text xml:space="preserve" text-anchor="middle" x="2717.62" y="-5168.58" font-family="Helvetica,sans-Serif" font-size="11.00">ensemble</text>
</g>

<g id="edge37" class="edge">
<path d="M1684.68,-3016.61C1792.88,-3243.13 2592.99,-4918.13 2704.68,-5151.96" />
<polygon points="2702.34,-5152.73 2707.57,-5158 2706.76,-5150.62 2702.34,-5152.73" />
</g>

<g id="node7" class="node tier-storage">
<path d="M4590.33,-2590.78C4590.33,-2590.78 4520.16,-2590.78 4520.16,-2590.78 4514.16,-2590.78 4508.16,-2584.78 4508.16,-2578.78 4508.16,-2578.78 4508.16,-2564.38 4508.16,-2564.38 4508.16,-2558.38 4514.16,-2552.38 4520.16,-2552.38 4520.16,-2552.38 4590.33,-2552.38 4590.33,-2552.38 4596.33,-2552.38 4602.33,-2558.38 4602.33,-2564.38 4602.33,-2564.38 4602.33,-2578.78 4602.33,-2578.78 4602.33,-2584.78 4596.33,-2590.78 4590.33,-2590.78" />
<text xml:space="preserve" text-anchor="middle" x="4555.25" y="-2573.13" font-family="Helvetica,sans-Serif" font-size="11.00">fraud adapter</text>
<text xml:space="preserve" text-anchor="middle" x="4555.25" y="-2561.13" font-family="Helvetica,sans-Serif" font-size="11.00">LightGBM .lgb</text>
</g>

<g id="edge7" class="edge">
<path d="M4507.71,-2571.41C4456.65,-2571.22 4373.97,-2570.92 4307.98,-2570.68" />
<polygon points="4308.13,-2568.23 4301.12,-2570.66 4308.12,-2573.13 4308.13,-2568.23" />
</g>

<g id="node8" class="node tier-storage">
<path d="M4529.86,-2394.82C4529.86,-2394.82 4431.19,-2394.82 4431.19,-2394.82 4425.19,-2394.82 4419.19,-2388.82 4419.19,-2382.82 4419.19,-2382.82 4419.19,-2368.42 4419.19,-2368.42 4419.19,-2362.42 4425.19,-2356.42 4431.19,-2356.42 4431.19,-2356.42 4529.86,-2356.42 4529.86,-2356.42 4535.86,-2356.42 4541.86,-2362.42 4541.86,-2368.42 4541.86,-2368.42 4541.86,-2382.82 4541.86,-2382.82 4541.86,-2388.82 4535.86,-2394.82 4529.86,-2394.82" />
<text xml:space="preserve" text-anchor="middle" x="4480.53" y="-2377.17" font-family="Helvetica,sans-Serif" font-size="11.00">code-agent adapter</text>
<text xml:space="preserve" text-anchor="middle" x="4480.53" y="-2365.17" font-family="Helvetica,sans-Serif" font-size="11.00">Sonnet 4.6 endpoint</text>
</g>

<g id="edge8" class="edge">
<path d="M4452.89,-2395.18C4402.33,-2430.97 4295.05,-2506.89 4239.85,-2545.96" />
<polygon points="4238.6,-2543.85 4234.3,-2549.89 4241.43,-2547.85 4238.6,-2543.85" />
</g>

<g id="node9" class="node tier-storage">
<path d="M4520.94,-2786.19C4520.94,-2786.19 4437.27,-2786.19 4437.27,-2786.19 4431.27,-2786.19 4425.27,-2780.19 4425.27,-2774.19 4425.27,-2774.19 4425.27,-2759.79 4425.27,-2759.79 4425.27,-2753.79 4431.27,-2747.79 4437.27,-2747.79 4437.27,-2747.79 4520.94,-2747.79 4520.94,-2747.79 4526.94,-2747.79 4532.94,-2753.79 4532.94,-2759.79 4532.94,-2759.79 4532.94,-2774.19 4532.94,-2774.19 4532.94,-2780.19 4526.94,-2786.19 4520.94,-2786.19" />
<text xml:space="preserve" text-anchor="middle" x="4479.11" y="-2768.54" font-family="Helvetica,sans-Serif" font-size="11.00">research adapter</text>
<text xml:space="preserve" text-anchor="middle" x="4479.11" y="-2756.54" font-family="Helvetica,sans-Serif" font-size="11.00">stub</text>
</g>

<g id="edge9" class="edge">
<path d="M4451.87,-2747.41C4401.56,-2711.26 4294.23,-2634.12 4239.32,-2594.66" />
<polygon points="4240.92,-2592.79 4233.81,-2590.69 4238.06,-2596.77 4240.92,-2592.79" />
</g>

<g id="node12" class="node tier-kernel">
<path d="M3139.54,-509.3C3139.54,-509.3 3003.37,-509.3 3003.37,-509.3 2997.37,-509.3 2991.37,-503.3 2991.37,-497.3 2991.37,-497.3 2991.37,-470.9 2991.37,-470.9 2991.37,-464.9 2997.37,-458.9 3003.37,-458.9 3003.37,-458.9 3139.54,-458.9 3139.54,-458.9 3145.54,-458.9 3151.54,-464.9 3151.54,-470.9 3151.54,-470.9 3151.54,-497.3 3151.54,-497.3 3151.54,-503.3 3145.54,-509.3 3139.54,-509.3" />
<text xml:space="preserve" text-anchor="middle" x="3071.46" y="-491.65" font-family="Helvetica,sans-Serif" font-size="11.00">held-out tests</text>
<text xml:space="preserve" text-anchor="middle" x="3071.46" y="-479.65" font-family="Helvetica,sans-Serif" font-size="11.00">fresh assertions post-submit</text>
<text xml:space="preserve" text-anchor="middle" x="3071.46" y="-467.65" font-family="Helvetica,sans-Serif" font-size="11.00">weight 1.0</text>
</g>

<g id="edge32" class="edge">
<path d="M4194.77,-2550.66C4088.82,-2355.76 3227.5,-771.17 3089.95,-518.12" />
<polygon points="3092.3,-517.32 3086.81,-512.34 3088,-519.66 3092.3,-517.32" />
<text xml:space="preserve" text-anchor="middle" x="3617.67" y="-1531.56" font-family="Helvetica,sans-Serif" font-size="9.00">output only</text>
</g>

<g id="node11" class="node tier-data">
<path d="M2918.22,-117.01C2918.22,-117.01 2833.8,-117.01 2833.8,-117.01 2827.8,-117.01 2821.8,-111.01 2821.8,-105.01 2821.8,-105.01 2821.8,-90.61 2821.8,-90.61 2821.8,-84.61 2827.8,-78.61 2833.8,-78.61 2833.8,-78.61 2918.22,-78.61 2918.22,-78.61 2924.22,-78.61 2930.22,-84.61 2930.22,-90.61 2930.22,-90.61 2930.22,-105.01 2930.22,-105.01 2930.22,-111.01 2924.22,-117.01 2918.22,-117.01" />
<text xml:space="preserve" text-anchor="middle" x="2876.01" y="-99.36" font-family="Helvetica,sans-Serif" font-size="11.00">Sealed Spec</text>
<text xml:space="preserve" text-anchor="middle" x="2876.01" y="-87.36" font-family="Helvetica,sans-Serif" font-size="11.00">YAML obligations</text>
</g>

<g id="edge10" class="edge">
<path d="M2885.98,-117.5C2917.55,-179.9 3015.64,-373.77 3054.93,-451.44" />
<polygon points="3052.52,-452.1 3057.86,-457.24 3056.89,-449.88 3052.52,-452.1" />
<text xml:space="preserve" text-anchor="middle" x="2957.26" y="-289.23" font-family="Helvetica,sans-Serif" font-size="9.00">derives</text>
</g>

<g id="node13" class="node tier-kernel">
<path d="M2826.79,-500.85C2826.79,-500.85 2694.37,-500.85 2694.37,-500.85 2688.37,-500.85 2682.37,-494.85 2682.37,-488.85 2682.37,-488.85 2682.37,-462.45 2682.37,-462.45 2682.37,-456.45 2688.37,-450.45 2694.37,-450.45 2694.37,-450.45 2826.79,-450.45 2826.79,-450.45 2832.79,-450.45 2838.79,-456.45 2838.79,-462.45 2838.79,-462.45 2838.79,-488.85 2838.79,-488.85 2838.79,-494.85 2832.79,-500.85 2826.79,-500.85" />
<text xml:space="preserve" text-anchor="middle" x="2760.58" y="-483.2" font-family="Helvetica,sans-Serif" font-size="11.00">metamorphic relations</text>
<text xml:space="preserve" text-anchor="middle" x="2760.58" y="-471.2" font-family="Helvetica,sans-Serif" font-size="11.00">invariants under transforms</text>
<text xml:space="preserve" text-anchor="middle" x="2760.58" y="-459.2" font-family="Helvetica,sans-Serif" font-size="11.00">weight 1.0</text>
</g>

<g id="edge11" class="edge">
<path d="M2870.05,-117.33C2851.46,-178.2 2794.36,-365.09 2770.86,-442.02" />
<polygon points="2768.57,-441.12 2768.87,-448.53 2773.26,-442.55 2768.57,-441.12" />
</g>

<g id="node14" class="node tier-kernel">
<path d="M2511.08,-115.51C2511.08,-115.51 2399.66,-115.51 2399.66,-115.51 2393.66,-115.51 2387.66,-109.51 2387.66,-103.51 2387.66,-103.51 2387.66,-77.11 2387.66,-77.11 2387.66,-71.11 2393.66,-65.11 2399.66,-65.11 2399.66,-65.11 2511.08,-65.11 2511.08,-65.11 2517.08,-65.11 2523.08,-71.11 2523.08,-77.11 2523.08,-77.11 2523.08,-103.51 2523.08,-103.51 2523.08,-109.51 2517.08,-115.51 2511.08,-115.51" />
<text xml:space="preserve" text-anchor="middle" x="2455.37" y="-97.86" font-family="Helvetica,sans-Serif" font-size="11.00">differential cross-family</text>
<text xml:space="preserve" text-anchor="middle" x="2455.37" y="-85.86" font-family="Helvetica,sans-Serif" font-size="11.00">Haiku vs Sonnet</text>
<text xml:space="preserve" text-anchor="middle" x="2455.37" y="-73.86" font-family="Helvetica,sans-Serif" font-size="11.00">weight 1.0</text>
</g>

<g id="edge12" class="edge">
<path d="M2821.45,-96.84C2747.63,-95.52 2615.56,-93.16 2531.86,-91.67" />
<polygon points="2531.97,-89.22 2524.93,-91.55 2531.88,-94.12 2531.97,-89.22" />
</g>

<g id="node15" class="node tier-kernel">
<path d="M2672.38,-64.4C2672.38,-64.4 2551.96,-64.4 2551.96,-64.4 2545.96,-64.4 2539.96,-58.4 2539.96,-52.4 2539.96,-52.4 2539.96,-26 2539.96,-26 2539.96,-20 2545.96,-14 2551.96,-14 2551.96,-14 2672.38,-14 2672.38,-14 2678.38,-14 2684.38,-20 2684.38,-26 2684.38,-26 2684.38,-52.4 2684.38,-52.4 2684.38,-58.4 2678.38,-64.4 2672.38,-64.4" />
<text xml:space="preserve" text-anchor="middle" x="2612.17" y="-46.75" font-family="Helvetica,sans-Serif" font-size="11.00">property-based fuzz</text>
<text xml:space="preserve" text-anchor="middle" x="2612.17" y="-34.75" font-family="Helvetica,sans-Serif" font-size="11.00">random samples vs spec</text>
<text xml:space="preserve" text-anchor="middle" x="2612.17" y="-22.75" font-family="Helvetica,sans-Serif" font-size="11.00">weight 1.0</text>
</g>

<g id="edge13" class="edge">
<path d="M2821.35,-85.66C2784.27,-77.43 2734.63,-66.4 2693.01,-57.16" />
<polygon points="2693.64,-54.79 2686.27,-55.66 2692.58,-59.57 2693.64,-54.79" />
</g>

<g id="node16" class="node tier-kernel">
<path d="M2686.8,-888.31C2686.8,-888.31 2594.13,-888.31 2594.13,-888.31 2588.13,-888.31 2582.13,-882.31 2582.13,-876.31 2582.13,-876.31 2582.13,-849.91 2582.13,-849.91 2582.13,-843.91 2588.13,-837.91 2594.13,-837.91 2594.13,-837.91 2686.8,-837.91 2686.8,-837.91 2692.8,-837.91 2698.8,-843.91 2698.8,-849.91 2698.8,-849.91 2698.8,-876.31 2698.8,-876.31 2698.8,-882.31 2692.8,-888.31 2686.8,-888.31" />
<text xml:space="preserve" text-anchor="middle" x="2640.46" y="-870.66" font-family="Helvetica,sans-Serif" font-size="11.00">LLM judge  ·  Opus</text>
<text xml:space="preserve" text-anchor="middle" x="2640.46" y="-858.66" font-family="Helvetica,sans-Serif" font-size="11.00">semantic read</text>
<text xml:space="preserve" text-anchor="middle" x="2640.46" y="-846.66" font-family="Helvetica,sans-Serif" font-size="11.00">weight 0.5</text>
</g>

<g id="edge14" class="edge">
<path d="M2860.99,-117.25C2822.68,-168.04 2721.36,-310.25 2678.67,-446.75 2635.89,-583.55 2636.37,-757.04 2638.83,-829.22" />
<polygon points="2636.37,-829.1 2639.08,-836 2641.27,-828.91 2636.37,-829.1" />
</g>

<g id="node17" class="node tier-control foundational">
<path d="M2576.13,-523.49C2576.13,-523.49 2452.71,-523.49 2452.71,-523.49 2446.71,-523.49 2440.71,-517.49 2440.71,-511.49 2440.71,-511.49 2440.71,-485.09 2440.71,-485.09 2440.71,-479.09 2446.71,-473.09 2452.71,-473.09 2452.71,-473.09 2576.13,-473.09 2576.13,-473.09 2582.13,-473.09 2588.13,-479.09 2588.13,-485.09 2588.13,-485.09 2588.13,-511.49 2588.13,-511.49 2588.13,-517.49 2582.13,-523.49 2576.13,-523.49" />
<text xml:space="preserve" text-anchor="middle" x="2514.42" y="-505.84" font-family="Helvetica,sans-Serif" font-size="11.00">Aggregator</text>
<text xml:space="preserve" text-anchor="middle" x="2514.42" y="-493.84" font-family="Helvetica,sans-Serif" font-size="11.00">PASS-weight sum &gt;= 2.0</text>
<text xml:space="preserve" text-anchor="middle" x="2514.42" y="-481.84" font-family="Helvetica,sans-Serif" font-size="11.00">=&gt; pass; else caught</text>
</g>

<g id="edge15" class="edge">
<path d="M2991.04,-493.05C2947.2,-497.48 2891.93,-502.34 2842.49,-504.55 2769.76,-507.79 2751.47,-505.93 2678.67,-504.55 2652.03,-504.04 2622.96,-503.07 2596.79,-502.04" />
<polygon points="2597.01,-499.6 2589.91,-501.77 2596.81,-504.49 2597.01,-499.6" />
</g>

<g id="edge16" class="edge">
<path d="M2682.02,-482.87C2654.86,-485.37 2624.36,-488.18 2596.89,-490.7" />
<polygon points="2596.72,-488.26 2589.98,-491.34 2597.17,-493.14 2596.72,-488.26" />
</g>

<g id="edge17" class="edge">
<path d="M2459.07,-115.83C2469.3,-186.52 2498.01,-384.89 2509.54,-464.55" />
<polygon points="2507.08,-464.7 2510.51,-471.28 2511.93,-464 2507.08,-464.7" />
</g>

<g id="edge18" class="edge">
<path d="M2606.7,-64.87C2590.11,-142.81 2540.29,-376.76 2521.61,-464.53" />
<polygon points="2519.22,-463.96 2520.16,-471.32 2524.01,-464.98 2519.22,-463.96" />
</g>

<g id="edge19" class="edge">
<path d="M2631.6,-837.45C2609.31,-772.95 2550.96,-604.04 2526,-531.82" />
<polygon points="2528.37,-531.16 2523.77,-525.34 2523.74,-532.76 2528.37,-531.16" />
</g>

<g id="edge33" class="edge">
<path d="M2499.1,-523.9C2368.13,-742.85 1438.48,-2297.11 1301.8,-2525.62" />
<polygon points="1299.8,-2524.2 1298.31,-2531.47 1304,-2526.72 1299.8,-2524.2" />
<text xml:space="preserve" text-anchor="middle" x="1858.17" y="-1530.19" font-family="Helvetica,sans-Serif" font-size="9.00">verdict + audit trace</text>
</g>

<g id="edge34" class="edge">
<path d="M2505.81,-523.77C2423.55,-767.38 1777.26,-2681.29 1683.83,-2957.99" />
<polygon points="1681.63,-2956.84 1681.71,-2964.26 1686.27,-2958.41 1681.63,-2956.84" />
<text xml:space="preserve" text-anchor="middle" x="2050" y="-1745.99" font-family="Helvetica,sans-Serif" font-size="9.00">log undetected hacks</text>
</g>

<g id="edge39" class="edge">
<path d="M2440.48,-497.91C2107.15,-496.2 747.09,-489.23 438.11,-487.64" />
<polygon points="438.23,-485.2 431.22,-487.61 438.21,-490.09 438.23,-485.2" />
<text xml:space="preserve" text-anchor="middle" x="1404.25" y="-493.93" font-family="Helvetica,sans-Serif" font-size="9.00">every verdict</text>
</g>

<g id="node21" class="node tier-compute foundational">
<path d="M2917.72,-5318.79C2917.72,-5318.79 2819.8,-5318.79 2819.8,-5318.79 2813.8,-5318.79 2807.8,-5312.79 2807.8,-5306.79 2807.8,-5306.79 2807.8,-5280.39 2807.8,-5280.39 2807.8,-5274.39 2813.8,-5268.39 2819.8,-5268.39 2819.8,-5268.39 2917.72,-5268.39 2917.72,-5268.39 2923.72,-5268.39 2929.72,-5274.39 2929.72,-5280.39 2929.72,-5280.39 2929.72,-5306.79 2929.72,-5306.79 2929.72,-5312.79 2923.72,-5318.79 2917.72,-5318.79" />
<text xml:space="preserve" text-anchor="middle" x="2868.76" y="-5301.14" font-family="Helvetica,sans-Serif" font-size="11.00">Retrainer</text>
<text xml:space="preserve" text-anchor="middle" x="2868.76" y="-5289.14" font-family="Helvetica,sans-Serif" font-size="11.00">LightGBM.fit() OR</text>
<text xml:space="preserve" text-anchor="middle" x="2868.76" y="-5277.14" font-family="Helvetica,sans-Serif" font-size="11.00">agent_configs patch</text>
</g>

<g id="edge20" class="edge">
<path d="M2951.17,-5300.89C2946.99,-5300.52 2942.7,-5300.14 2938.36,-5299.76" />
<polygon points="2938.69,-5297.33 2931.5,-5299.15 2938.26,-5302.21 2938.69,-5297.33" />
</g>

<g id="edge21" class="edge">
<path d="M2927.9,-4930.95C2917.88,-4992.36 2886.89,-5182.45 2874.23,-5260.07" />
<polygon points="2871.87,-5259.29 2873.17,-5266.6 2876.71,-5260.08 2871.87,-5259.29" />
</g>

<g id="edge22" class="edge">
<path d="M2743.6,-5198.72C2766.87,-5216.36 2801.36,-5242.5 2828.24,-5262.88" />
<polygon points="2826.64,-5264.73 2833.7,-5267.01 2829.6,-5260.83 2826.64,-5264.73" />
</g>

<g id="node22" class="node tier-storage foundational">
<path d="M3297.34,-5094.34C3297.34,-5094.34 3182.17,-5094.34 3182.17,-5094.34 3176.17,-5094.34 3170.17,-5088.34 3170.17,-5082.34 3170.17,-5082.34 3170.17,-5055.94 3170.17,-5055.94 3170.17,-5049.94 3176.17,-5043.94 3182.17,-5043.94 3182.17,-5043.94 3297.34,-5043.94 3297.34,-5043.94 3303.34,-5043.94 3309.34,-5049.94 3309.34,-5055.94 3309.34,-5055.94 3309.34,-5082.34 3309.34,-5082.34 3309.34,-5088.34 3303.34,-5094.34 3297.34,-5094.34" />
<text xml:space="preserve" text-anchor="middle" x="3239.75" y="-5076.69" font-family="Helvetica,sans-Serif" font-size="11.00">Held-out validator</text>
<text xml:space="preserve" text-anchor="middle" x="3239.75" y="-5064.69" font-family="Helvetica,sans-Serif" font-size="11.00">fixed attack set</text>
<text xml:space="preserve" text-anchor="middle" x="3239.75" y="-5052.69" font-family="Helvetica,sans-Serif" font-size="11.00">never seen by proposer</text>
</g>

<g id="edge23" class="edge">
<path d="M2910.96,-5268.06C2980.04,-5226.26 3116.93,-5143.45 3190.4,-5099" />
<polygon points="3191.29,-5101.32 3196.01,-5095.6 3188.76,-5097.13 3191.29,-5101.32" />
</g>

<g id="edge38" class="edge">
<path stroke-dasharray="5,2" d="M3249.62,-5043.59C3344.73,-4797.5 4097.07,-2850.74 4194.96,-2597.44" />
<polygon points="4197.13,-2598.62 4197.37,-2591.21 4192.56,-2596.85 4197.13,-2598.62" />
<text xml:space="preserve" text-anchor="middle" x="3696.14" y="-3817.58" font-family="Helvetica,sans-Serif" font-size="9.00">retrain / patch</text>
</g>

<g id="node24" class="node tier-observability foundational">
<path d="M673.51,-699.8C673.51,-699.8 543.34,-699.8 543.34,-699.8 537.34,-699.8 531.34,-693.8 531.34,-687.8 531.34,-687.8 531.34,-649.4 531.34,-649.4 531.34,-643.4 537.34,-637.4 543.34,-637.4 543.34,-637.4 673.51,-637.4 673.51,-637.4 679.51,-637.4 685.51,-643.4 685.51,-649.4 685.51,-649.4 685.51,-687.8 685.51,-687.8 685.51,-693.8 679.51,-699.8 673.51,-699.8" />
<text xml:space="preserve" text-anchor="middle" x="608.43" y="-682.15" font-family="Helvetica,sans-Serif" font-size="11.00">Dashboard</text>
<text xml:space="preserve" text-anchor="middle" x="608.43" y="-670.15" font-family="Helvetica,sans-Serif" font-size="11.00">undetected-hack rate</text>
<text xml:space="preserve" text-anchor="middle" x="608.43" y="-658.15" font-family="Helvetica,sans-Serif" font-size="11.00">val-vs-heldout gap</text>
<text xml:space="preserve" text-anchor="middle" x="608.43" y="-646.15" font-family="Helvetica,sans-Serif" font-size="11.00">cost/hack  ·  human-min/1k</text>
</g>

<g id="edge24" class="edge">
<path d="M400.39,-506.72C438.62,-536.47 512.39,-593.87 561.02,-631.71" />
<polygon points="559.48,-633.62 566.51,-635.99 562.49,-629.75 559.48,-633.62" />
</g>

<g id="node25" class="node tier-observability">
<path d="M123.17,-378.31C123.17,-378.31 26,-378.31 26,-378.31 20,-378.31 14,-372.31 14,-366.31 14,-366.31 14,-339.91 14,-339.91 14,-333.91 20,-327.91 26,-327.91 26,-327.91 123.17,-327.91 123.17,-327.91 129.17,-327.91 135.17,-333.91 135.17,-339.91 135.17,-339.91 135.17,-366.31 135.17,-366.31 135.17,-372.31 129.17,-378.31 123.17,-378.31" />
<text xml:space="preserve" text-anchor="middle" x="74.59" y="-360.66" font-family="Helvetica,sans-Serif" font-size="11.00">Co-evolution curves</text>
<text xml:space="preserve" text-anchor="middle" x="74.59" y="-348.66" font-family="Helvetica,sans-Serif" font-size="11.00">ASR  ·  detection</text>
<text xml:space="preserve" text-anchor="middle" x="74.59" y="-336.66" font-family="Helvetica,sans-Serif" font-size="11.00">red &lt;-&gt; blue rounds</text>
</g>

<g id="edge25" class="edge">
<path d="M331.39,-467.66C280.93,-445.16 197.79,-408.07 139.83,-382.21" />
<polygon points="140.95,-380.03 133.56,-379.42 138.95,-384.5 140.95,-380.03" />
</g>

<g id="node26" class="node tier-observability">
<path d="M680.45,-415.09C680.45,-415.09 573.53,-415.09 573.53,-415.09 567.53,-415.09 561.53,-409.09 561.53,-403.09 561.53,-403.09 561.53,-388.69 561.53,-388.69 561.53,-382.69 567.53,-376.69 573.53,-376.69 573.53,-376.69 680.45,-376.69 680.45,-376.69 686.45,-376.69 692.45,-382.69 692.45,-388.69 692.45,-388.69 692.45,-403.09 692.45,-403.09 692.45,-409.09 686.45,-415.09 680.45,-415.09" />
<text xml:space="preserve" text-anchor="middle" x="626.99" y="-397.44" font-family="Helvetica,sans-Serif" font-size="11.00">Audit trace per verdict</text>
<text xml:space="preserve" text-anchor="middle" x="626.99" y="-385.44" font-family="Helvetica,sans-Serif" font-size="11.00">1-click replay</text>
</g>

<g id="edge26" class="edge">
<path d="M429.42,-467.71C469.29,-453.22 523.63,-433.46 565.24,-418.34" />
<polygon points="565.95,-420.68 571.69,-415.99 564.28,-416.08 565.95,-420.68" />
</g>

<g id="node27" class="node tier-data">
<path d="M335.16,-237.32C335.16,-237.32 261.24,-237.32 261.24,-237.32 255.24,-237.32 249.24,-231.32 249.24,-225.32 249.24,-225.32 249.24,-186.92 249.24,-186.92 249.24,-180.92 255.24,-174.92 261.24,-174.92 261.24,-174.92 335.16,-174.92 335.16,-174.92 341.16,-174.92 347.16,-180.92 347.16,-186.92 347.16,-186.92 347.16,-225.32 347.16,-225.32 347.16,-231.32 341.16,-237.32 335.16,-237.32" />
<text xml:space="preserve" text-anchor="middle" x="298.2" y="-219.67" font-family="Helvetica,sans-Serif" font-size="11.00">Artifacts</text>
<text xml:space="preserve" text-anchor="middle" x="298.2" y="-207.67" font-family="Helvetica,sans-Serif" font-size="11.00">seeded corpus</text>
<text xml:space="preserve" text-anchor="middle" x="298.2" y="-195.67" font-family="Helvetica,sans-Serif" font-size="11.00">leaderboard</text>
<text xml:space="preserve" text-anchor="middle" x="298.2" y="-183.67" font-family="Helvetica,sans-Serif" font-size="11.00">SR 11-7 report</text>
</g>

<g id="edge28" class="edge">
<path d="M587.35,-637.18C532.24,-555.03 384.03,-334.08 323.99,-244.57" />
<polygon points="326.08,-243.29 320.15,-238.85 322.01,-246.02 326.08,-243.29" />
</g>

<g id="node28" class="node tier-control foundational">
<path d="M292.39,-827.1C292.39,-827.1 160.72,-827.1 160.72,-827.1 154.72,-827.1 148.72,-821.1 148.72,-815.1 148.72,-815.1 148.72,-788.7 148.72,-788.7 148.72,-782.7 154.72,-776.7 160.72,-776.7 160.72,-776.7 292.39,-776.7 292.39,-776.7 298.39,-776.7 304.39,-782.7 304.39,-788.7 304.39,-788.7 304.39,-815.1 304.39,-815.1 304.39,-821.1 298.39,-827.1 292.39,-827.1" />
<text xml:space="preserve" text-anchor="middle" x="226.56" y="-809.45" font-family="Helvetica,sans-Serif" font-size="11.00">Halt-certification</text>
<text xml:space="preserve" text-anchor="middle" x="226.56" y="-797.45" font-family="Helvetica,sans-Serif" font-size="11.00">white-box recall &lt; red line</text>
<text xml:space="preserve" text-anchor="middle" x="226.56" y="-785.45" font-family="Helvetica,sans-Serif" font-size="11.00">=&gt; refuse new POST /runs</text>
</g>

<g id="edge27" class="edge">
<path d="M531.15,-695.58C466.33,-718.2 374.04,-750.42 308.07,-773.45" />
<polygon points="307.39,-771.09 301.58,-775.71 309,-775.72 307.39,-771.09" />
</g>

<g id="edge29" class="edge">
<path d="M113.54,-327.5C149.49,-303.87 203.26,-268.52 243.52,-242.06" />
<polygon points="244.6,-244.29 249.1,-238.39 241.9,-240.19 244.6,-244.29" />
</g>

<g id="edge30" class="edge">
<path d="M593.04,-376.3C536.76,-343.81 423.56,-278.48 354.97,-238.89" />
<polygon points="356.25,-236.8 348.96,-235.42 353.8,-241.04 356.25,-236.8" />
</g>

<g id="edge41" class="edge edge-ctrl">
<path stroke-dasharray="5,2" d="M241.93,-827.34C361.91,-1025.9 1146.9,-2325.03 1269.07,-2527.22" />
<polygon points="1266.79,-2528.19 1272.51,-2532.91 1270.98,-2525.65 1266.79,-2528.19" />
<text xml:space="preserve" text-anchor="middle" x="729.54" y="-1682.06" font-family="Helvetica,sans-Serif" font-size="9.00">blocks launch</text>
</g>
</g>
</svg>