<svg xmlns="http://www.w3.org/2000/svg" viewBox="0.00 0.00 1814.00 1335.00" role="img" aria-labelledby="t d">
<defs><marker id="arrow" viewBox="0 0 10 10" refX="9" refY="5" markerWidth="8" markerHeight="8" orient="auto-start-reverse"><path d="M0,0 L10,5 L0,10 z" fill="#e2e8f0" /></marker><style>
  /* Box fills are pale pastels; text is solid #0d0d0d for maximum legibility
     regardless of the host theme (light or dark). We do NOT use the
     --text-primary CSS variable here because in a dark theme it can resolve
     to a near-white that then sits on top of a near-white pastel fill and
     becomes unreadable. The pastels are constants, so the text color can be
     a constant too. */
  .box        { fill: var(--bg-200, #f3f3f0); stroke: var(--border, #d6d3cf); stroke-width: 1.2; }
  .accent     { fill: var(--accent-100, #e8e6e1); stroke: var(--border, #a59f96); stroke-width: 2.0; }
  .tier-data         { fill: #dde7f0; stroke: #6b8aab; }
  .tier-compute      { fill: #e0ecd9; stroke: #75986a; }
  .tier-control      { fill: #ecdff0; stroke: #9b6fa7; }
  .tier-observability{ fill: #f5dcdc; stroke: #a96f6f; }
  .tier-storage      { fill: #f5ecd0; stroke: #a98947; }
  .tier-parallel     { fill: #dde7f0; stroke: #6b8aab; }
  .tier-kernel       { fill: #e0ecd9; stroke: #75986a; }
  .tier-decode       { fill: #ecdff0; stroke: #9b6fa7; }
  .tier-output       { fill: #f5ecd0; stroke: #a98947; }
  /* Foundational nodes — present in the Basic Interview Sketch (the simplest
     diagram that would pass 90% of technical interviews) AND echoed in
     exhaustive diagrams. The accent border + outer drop-shadow glow lets a
     reader sweeping the deep-dive diagrams instantly see which boxes carry
     the whiteboard answer and which are extra-credit material. The selectors
     below have higher specificity than the .tier-* rules above (class.class
     beats single class), so they win on stroke. The filter is applied at the
     node-level &lt;g&gt; so the glow sits behind the box and its text. */
  .node.foundational &gt; path,
  .node.foundational &gt; polygon,
  .node.foundational &gt; ellipse,
  .node.foundational &gt; rect {
    stroke: #c2410c;
    stroke-width: 3.2;
  }
  .node.foundational {
    filter: drop-shadow(0 0 3px rgba(194, 65, 12, 0.55));
  }
  /* Solid dark text for legibility on pastel fills. Accent ellipses get an
     extra weight + size bump because their text otherwise looks small inside
     a large oval. */
  .node text         { fill: #0d0d0d; font: 700 13px system-ui, sans-serif; }
  .node.accent text  { fill: #0d0d0d; font: 800 14px system-ui, sans-serif; letter-spacing: 0.1px; }
  /* High-contrast edges that read on BOTH dark and light backgrounds.
     The previous edge stroke (#4a4a48) disappeared on dark themes because
     the chat surface is near-black. A bright slate stroke (#e2e8f0) at width
     2.2, with a matching arrowhead fill and labels carrying a dark halo via
     paint-order: stroke, is visible on dark backgrounds and still readable
     on top of the pale pastel box fills in light mode. The marker fill in
     style_svg below was bumped to the same #e2e8f0 for the same reason. */
  .edge path, .edge polyline {
    fill: none; stroke: #e2e8f0; stroke-width: 2.2;
  }
  .edge polygon { fill: #e2e8f0; stroke: #e2e8f0; }
  .edge-ctrl path, .edge-ctrl polyline {
    fill: none; stroke: #e2e8f0; stroke-width: 2.0;
    stroke-dasharray: 6 4;
  }
  .edge-ctrl polygon { fill: #e2e8f0; stroke: #e2e8f0; }
  .edge text, .edge-ctrl text {
    fill: #f1f5f9; font: 700 12px system-ui, sans-serif;
    paint-order: stroke; stroke: rgba(15, 23, 42, 0.85); stroke-width: 3px;
  }
</style></defs><title id="t">Crucible · combined system overview</title><desc id="d">Closed-loop architecture: red attacks, sealed oracles verify, blue hardens, measure scores, halt-cert gates new runs. Foundational nodes (whiteboard-pass bar) carry the burnt-orange accent border.</desc><g id="graph0" class="graph" transform="scale(1 1) rotate(0) translate(43.2 1292.2)">
<g id="clust1" class="cluster">
<path stroke-dasharray="5,2" d="M502.09,-442C502.09,-442 1374.02,-442 1374.02,-442 1380.02,-442 1386.02,-448 1386.02,-454 1386.02,-454 1386.02,-690 1386.02,-690 1386.02,-696 1380.02,-702 1374.02,-702 1374.02,-702 502.09,-702 502.09,-702 496.09,-702 490.09,-696 490.09,-690 490.09,-690 490.09,-454 490.09,-454 490.09,-448 496.09,-442 502.09,-442" />
<text xml:space="preserve" text-anchor="start" x="915.18" y="-688.55" font-family="Helvetica,sans-Serif" font-weight="bold" font-size="11.00" fill="#c0584f">Red side</text>
</g>
<g id="clust2" class="cluster">
<path d="M758.51,-456C758.51,-456 1360.02,-456 1360.02,-456 1366.02,-456 1372.02,-462 1372.02,-468 1372.02,-468 1372.02,-596 1372.02,-596 1372.02,-602 1366.02,-608 1360.02,-608 1360.02,-608 758.51,-608 758.51,-608 752.51,-608 746.51,-602 746.51,-596 746.51,-596 746.51,-468 746.51,-468 746.51,-462 752.51,-456 758.51,-456" />
<text xml:space="preserve" text-anchor="start" x="968.89" y="-594.55" font-family="Helvetica,sans-Serif" font-weight="bold" font-size="11.00" fill="#c0584f">Red Agent  ·  LLM semantic search</text>
</g>
<g id="clust3" class="cluster">
<path stroke-dasharray="5,2" d="M1251.6,-1015C1251.6,-1015 1707.44,-1015 1707.44,-1015 1713.44,-1015 1719.44,-1021 1719.44,-1027 1719.44,-1027 1719.44,-1229 1719.44,-1229 1719.44,-1235 1713.44,-1241 1707.44,-1241 1707.44,-1241 1251.6,-1241 1251.6,-1241 1245.6,-1241 1239.6,-1235 1239.6,-1229 1239.6,-1229 1239.6,-1027 1239.6,-1027 1239.6,-1021 1245.6,-1015 1251.6,-1015" />
<text xml:space="preserve" text-anchor="start" x="1354.65" y="-1227.55" font-family="Helvetica,sans-Serif" font-weight="bold" font-size="11.00" fill="#94a3b8">Producer Zone  ·  sandboxed, no path to verifier</text>
</g>
<g id="clust4" class="cluster">
<path stroke-dasharray="5,2" d="M20,-8C20,-8 637.01,-8 637.01,-8 643.01,-8 649.01,-14 649.01,-20 649.01,-20 649.01,-422 649.01,-422 649.01,-428 643.01,-434 637.01,-434 637.01,-434 20,-434 20,-434 14,-434 8,-428 8,-422 8,-422 8,-20 8,-20 8,-14 14,-8 20,-8" />
<text xml:space="preserve" text-anchor="start" x="205.88" y="-420.55" font-family="Helvetica,sans-Serif" font-weight="bold" font-size="11.00" fill="#8b7fd4">Sealed Verification Zone  ·  no producer path in</text>
</g>
<g id="clust5" class="cluster">
<path stroke-dasharray="5,2" d="M760.14,-710C760.14,-710 1386.52,-710 1386.52,-710 1392.52,-710 1398.52,-716 1398.52,-722 1398.52,-722 1398.52,-922 1398.52,-922 1398.52,-928 1392.52,-934 1386.52,-934 1386.52,-934 760.14,-934 760.14,-934 754.14,-934 748.14,-928 748.14,-922 748.14,-922 748.14,-722 748.14,-722 748.14,-716 754.14,-710 760.14,-710" />
<text xml:space="preserve" text-anchor="start" x="982.95" y="-920.55" font-family="Helvetica,sans-Serif" font-weight="bold" font-size="11.00" fill="#6366f1">Blue Loop  ·  automated hardening</text>
</g>
<g id="clust6" class="cluster">
<path stroke-dasharray="5,2" d="M981.31,-170C981.31,-170 1691.32,-170 1691.32,-170 1697.32,-170 1703.32,-176 1703.32,-182 1703.32,-182 1703.32,-420 1703.32,-420 1703.32,-426 1697.32,-432 1691.32,-432 1691.32,-432 981.31,-432 981.31,-432 975.31,-432 969.31,-426 969.31,-420 969.31,-420 969.31,-182 969.31,-182 969.31,-176 975.31,-170 981.31,-170" />
<text xml:space="preserve" text-anchor="start" x="1232.81" y="-418.55" font-family="Helvetica,sans-Serif" font-weight="bold" font-size="11.00" fill="#94a3b8">Measure  ·  scoreboard + flight recorder</text>
</g>

<g id="node1" class="node tier-compute foundational">
<path d="M859.68,-504.2C859.68,-504.2 768.51,-504.2 768.51,-504.2 762.51,-504.2 756.51,-498.2 756.51,-492.2 756.51,-492.2 756.51,-477.8 756.51,-477.8 756.51,-471.8 762.51,-465.8 768.51,-465.8 768.51,-465.8 859.68,-465.8 859.68,-465.8 865.68,-465.8 871.68,-471.8 871.68,-477.8 871.68,-477.8 871.68,-492.2 871.68,-492.2 871.68,-498.2 865.68,-504.2 859.68,-504.2" />
<text xml:space="preserve" text-anchor="middle" x="814.1" y="-486.55" font-family="Helvetica,sans-Serif" font-size="11.00">reason</text>
<text xml:space="preserve" text-anchor="middle" x="814.1" y="-474.55" font-family="Helvetica,sans-Serif" font-size="11.00">why was I caught?</text>
</g>

<g id="node2" class="node tier-compute">
<path d="M1106.35,-504.2C1106.35,-504.2 968.68,-504.2 968.68,-504.2 962.68,-504.2 956.68,-498.2 956.68,-492.2 956.68,-492.2 956.68,-477.8 956.68,-477.8 956.68,-471.8 962.68,-465.8 968.68,-465.8 968.68,-465.8 1106.35,-465.8 1106.35,-465.8 1112.35,-465.8 1118.35,-471.8 1118.35,-477.8 1118.35,-477.8 1118.35,-492.2 1118.35,-492.2 1118.35,-498.2 1112.35,-504.2 1106.35,-504.2" />
<text xml:space="preserve" text-anchor="middle" x="1037.52" y="-486.55" font-family="Helvetica,sans-Serif" font-size="11.00">propose minimal change</text>
<text xml:space="preserve" text-anchor="middle" x="1037.52" y="-474.55" font-family="Helvetica,sans-Serif" font-size="11.00">preserve intent + constraints</text>
</g>

<g id="edge1" class="edge">
<path d="M872.12,-485C895.24,-485 922.49,-485 948.08,-485" />
<polygon points="947.81,-487.45 954.81,-485 947.81,-482.55 947.81,-487.45" />
</g>

<g id="node23" class="node tier-observability">
<path d="M1079.73,-322.2C1079.73,-322.2 995.31,-322.2 995.31,-322.2 989.31,-322.2 983.31,-316.2 983.31,-310.2 983.31,-310.2 983.31,-295.8 983.31,-295.8 983.31,-289.8 989.31,-283.8 995.31,-283.8 995.31,-283.8 1079.73,-283.8 1079.73,-283.8 1085.73,-283.8 1091.73,-289.8 1091.73,-295.8 1091.73,-295.8 1091.73,-310.2 1091.73,-310.2 1091.73,-316.2 1085.73,-322.2 1079.73,-322.2" />
<text xml:space="preserve" text-anchor="middle" x="1037.52" y="-304.55" font-family="Helvetica,sans-Serif" font-size="11.00">agent step traces</text>
<text xml:space="preserve" text-anchor="middle" x="1037.52" y="-292.55" font-family="Helvetica,sans-Serif" font-size="11.00">+ every verdict</text>
</g>

<g id="edge40" class="edge">
<path d="M838.79,-465.52C879.22,-432.29 961.48,-364.68 1006.09,-328.01" />
<polygon points="1007.63,-329.91 1011.49,-323.57 1004.52,-326.13 1007.63,-329.91" />
<text xml:space="preserve" text-anchor="middle" x="914.18" y="-422.14" font-family="Helvetica,sans-Serif" font-size="9.00">step traces</text>
</g>

<g id="node3" class="node tier-compute">
<path d="M1350.02,-578.2C1350.02,-578.2 1279.85,-578.2 1279.85,-578.2 1273.85,-578.2 1267.85,-572.2 1267.85,-566.2 1267.85,-566.2 1267.85,-551.8 1267.85,-551.8 1267.85,-545.8 1273.85,-539.8 1279.85,-539.8 1279.85,-539.8 1350.02,-539.8 1350.02,-539.8 1356.02,-539.8 1362.02,-545.8 1362.02,-551.8 1362.02,-551.8 1362.02,-566.2 1362.02,-566.2 1362.02,-572.2 1356.02,-578.2 1350.02,-578.2" />
<text xml:space="preserve" text-anchor="middle" x="1314.94" y="-560.55" font-family="Helvetica,sans-Serif" font-size="11.00">query_target()</text>
<text xml:space="preserve" text-anchor="middle" x="1314.94" y="-548.55" font-family="Helvetica,sans-Serif" font-size="11.00">score</text>
</g>

<g id="edge2" class="edge">
<path d="M1118.55,-499.99C1149.77,-506.47 1185.71,-514.7 1217.85,-524 1231.54,-527.96 1246.08,-532.88 1259.61,-537.76" />
<polygon points="1258.6,-540 1266.02,-540.11 1260.28,-535.4 1258.6,-540" />
</g>

<g id="edge3" class="edge">
<path stroke-dasharray="5,2" d="M1267.76,-547.47C1252.01,-543.93 1234.25,-540.34 1217.85,-538 1102.67,-521.53 1071.63,-538.03 956.68,-520 931.4,-516.03 904.01,-509.74 880.12,-503.58" />
<polygon points="881.01,-501.29 873.62,-501.89 879.77,-506.03 881.01,-501.29" />
<text xml:space="preserve" text-anchor="middle" x="1037.52" y="-531.06" font-family="Helvetica,sans-Serif" font-size="9.00">iterate on score</text>
</g>

<g id="node10" class="node tier-compute foundational">
<path d="M1693.44,-1067.2C1693.44,-1067.2 1529.52,-1067.2 1529.52,-1067.2 1523.52,-1067.2 1517.52,-1061.2 1517.52,-1055.2 1517.52,-1055.2 1517.52,-1040.8 1517.52,-1040.8 1517.52,-1034.8 1523.52,-1028.8 1529.52,-1028.8 1529.52,-1028.8 1693.44,-1028.8 1693.44,-1028.8 1699.44,-1028.8 1705.44,-1034.8 1705.44,-1040.8 1705.44,-1040.8 1705.44,-1055.2 1705.44,-1055.2 1705.44,-1061.2 1699.44,-1067.2 1693.44,-1067.2" />
<text xml:space="preserve" text-anchor="middle" x="1611.48" y="-1049.55" font-family="Helvetica,sans-Serif" font-size="11.00">Target Protocol</text>
<text xml:space="preserve" text-anchor="middle" x="1611.48" y="-1037.55" font-family="Helvetica,sans-Serif" font-size="11.00">submit  ·  query_target  ·  self_test</text>
</g>

<g id="edge31" class="edge">
<path d="M1327.66,-578.47C1373.39,-654.38 1539.79,-930.65 1593.58,-1019.95" />
<polygon points="1591.45,-1021.15 1597.16,-1025.88 1595.64,-1018.62 1591.45,-1021.15" />
<text xml:space="preserve" text-anchor="middle" x="1454.77" y="-848.5" font-family="Helvetica,sans-Serif" font-size="9.00">submit / query_target</text>
</g>

<g id="node4" class="node tier-control">
<path d="M603.14,-513.2C603.14,-513.2 519.47,-513.2 519.47,-513.2 513.47,-513.2 507.47,-507.2 507.47,-501.2 507.47,-501.2 507.47,-474.8 507.47,-474.8 507.47,-468.8 513.47,-462.8 519.47,-462.8 519.47,-462.8 603.14,-462.8 603.14,-462.8 609.14,-462.8 615.14,-468.8 615.14,-474.8 615.14,-474.8 615.14,-501.2 615.14,-501.2 615.14,-507.2 609.14,-513.2 603.14,-513.2" />
<text xml:space="preserve" text-anchor="middle" x="561.3" y="-495.55" font-family="Helvetica,sans-Serif" font-size="11.00">white-box mode</text>
<text xml:space="preserve" text-anchor="middle" x="561.3" y="-483.55" font-family="Helvetica,sans-Serif" font-size="11.00">scheme revealed</text>
<text xml:space="preserve" text-anchor="middle" x="561.3" y="-471.55" font-family="Helvetica,sans-Serif" font-size="11.00">instances hidden</text>
</g>

<g id="edge4" class="edge">
<path stroke-dasharray="5,2" d="M615.49,-487.36C654.09,-486.9 706.55,-486.27 747.72,-485.78" />
<polygon points="747.57,-488.23 754.54,-485.7 747.52,-483.33 747.57,-488.23" />
<text xml:space="preserve" text-anchor="middle" x="696.76" y="-488.06" font-family="Helvetica,sans-Serif" font-size="9.00">augments prompt</text>
</g>

<g id="node5" class="node tier-control">
<path d="M1086.85,-668.2C1086.85,-668.2 988.18,-668.2 988.18,-668.2 982.18,-668.2 976.18,-662.2 976.18,-656.2 976.18,-656.2 976.18,-629.8 976.18,-629.8 976.18,-623.8 982.18,-617.8 988.18,-617.8 988.18,-617.8 1086.85,-617.8 1086.85,-617.8 1092.85,-617.8 1098.85,-623.8 1098.85,-629.8 1098.85,-629.8 1098.85,-656.2 1098.85,-656.2 1098.85,-662.2 1092.85,-668.2 1086.85,-668.2" />
<text xml:space="preserve" text-anchor="middle" x="1037.52" y="-650.55" font-family="Helvetica,sans-Serif" font-size="11.00">hybrid fallback</text>
<text xml:space="preserve" text-anchor="middle" x="1037.52" y="-638.55" font-family="Helvetica,sans-Serif" font-size="11.00">scipy.optimize</text>
<text xml:space="preserve" text-anchor="middle" x="1037.52" y="-626.55" font-family="Helvetica,sans-Serif" font-size="11.00">constrained numeric</text>
</g>

<g id="edge5" class="edge">
<path stroke-dasharray="5,2" d="M1099.3,-624.46C1147.12,-609.88 1213.16,-589.73 1259.32,-575.66" />
<polygon points="1259.98,-578.02 1265.96,-573.63 1258.55,-573.33 1259.98,-578.02" />
<text xml:space="preserve" text-anchor="middle" x="1178.1" y="-612.19" font-family="Helvetica,sans-Serif" font-size="9.00">executes proposals</text>
</g>

<g id="node6" class="node tier-data foundational">
<path d="M606.51,-631.2C606.51,-631.2 516.09,-631.2 516.09,-631.2 510.09,-631.2 504.09,-625.2 504.09,-619.2 504.09,-619.2 504.09,-592.8 504.09,-592.8 504.09,-586.8 510.09,-580.8 516.09,-580.8 516.09,-580.8 606.51,-580.8 606.51,-580.8 612.51,-580.8 618.51,-586.8 618.51,-592.8 618.51,-592.8 618.51,-619.2 618.51,-619.2 618.51,-625.2 612.51,-631.2 606.51,-631.2" />
<text xml:space="preserve" text-anchor="middle" x="561.3" y="-613.55" font-family="Helvetica,sans-Serif" font-size="11.00">Strategy Catalog</text>
<text xml:space="preserve" text-anchor="middle" x="561.3" y="-601.55" font-family="Helvetica,sans-Serif" font-size="11.00">persistent memory</text>
<text xml:space="preserve" text-anchor="middle" x="561.3" y="-589.55" font-family="Helvetica,sans-Serif" font-size="11.00">across runs</text>
</g>

<g id="edge6" class="edge">
<path stroke-dasharray="5,2" d="M615.49,-580.34C659.71,-559 722.1,-528.9 764.88,-508.26" />
<polygon points="765.76,-510.56 771,-505.31 763.63,-506.14 765.76,-510.56" />
<text xml:space="preserve" text-anchor="middle" x="696.76" y="-561.1" font-family="Helvetica,sans-Serif" font-size="9.00">reuse tactics</text>
</g>

<g id="node18" class="node tier-compute">
<path d="M846.18,-830C846.18,-830 782.01,-830 782.01,-830 776.01,-830 770.01,-824 770.01,-818 770.01,-818 770.01,-806 770.01,-806 770.01,-800 776.01,-794 782.01,-794 782.01,-794 846.18,-794 846.18,-794 852.18,-794 858.18,-800 858.18,-806 858.18,-806 858.18,-818 858.18,-818 858.18,-824 852.18,-830 846.18,-830" />
<text xml:space="preserve" text-anchor="middle" x="814.1" y="-807.55" font-family="Helvetica,sans-Serif" font-size="11.00">new features</text>
</g>

<g id="edge35" class="edge">
<path d="M584.55,-631.59C617.16,-667.9 681.2,-734.76 746.51,-778 752.71,-782.1 759.47,-786.07 766.23,-789.76" />
<polygon points="764.86,-791.82 772.2,-792.94 767.17,-787.49 764.86,-791.82" />
<text xml:space="preserve" text-anchor="middle" x="696.76" y="-771.56" font-family="Helvetica,sans-Serif" font-size="9.00">discovered tactics</text>
</g>

<g id="node19" class="node tier-compute">
<path d="M854.06,-762.2C854.06,-762.2 774.14,-762.2 774.14,-762.2 768.14,-762.2 762.14,-756.2 762.14,-750.2 762.14,-750.2 762.14,-735.8 762.14,-735.8 762.14,-729.8 768.14,-723.8 774.14,-723.8 774.14,-723.8 854.06,-723.8 854.06,-723.8 860.06,-723.8 866.06,-729.8 866.06,-735.8 866.06,-735.8 866.06,-750.2 866.06,-750.2 866.06,-756.2 860.06,-762.2 854.06,-762.2" />
<text xml:space="preserve" text-anchor="middle" x="814.1" y="-744.55" font-family="Helvetica,sans-Serif" font-size="11.00">adversarial</text>
<text xml:space="preserve" text-anchor="middle" x="814.1" y="-732.55" font-family="Helvetica,sans-Serif" font-size="11.00">training samples</text>
</g>

<g id="edge36" class="edge">
<path d="M609.18,-631.61C655.38,-656.84 725.37,-695.08 770.15,-719.54" />
<polygon points="768.75,-721.56 776.06,-722.77 771.09,-717.26 768.75,-721.56" />
</g>

<g id="node20" class="node tier-compute">
<path d="M838.31,-900.2C838.31,-900.2 789.89,-900.2 789.89,-900.2 783.89,-900.2 777.89,-894.2 777.89,-888.2 777.89,-888.2 777.89,-873.8 777.89,-873.8 777.89,-867.8 783.89,-861.8 789.89,-861.8 789.89,-861.8 838.31,-861.8 838.31,-861.8 844.31,-861.8 850.31,-867.8 850.31,-873.8 850.31,-873.8 850.31,-888.2 850.31,-888.2 850.31,-894.2 844.31,-900.2 838.31,-900.2" />
<text xml:space="preserve" text-anchor="middle" x="814.1" y="-882.55" font-family="Helvetica,sans-Serif" font-size="11.00">specialist</text>
<text xml:space="preserve" text-anchor="middle" x="814.1" y="-870.55" font-family="Helvetica,sans-Serif" font-size="11.00">ensemble</text>
</g>

<g id="edge37" class="edge">
<path d="M570.76,-631.43C584.25,-669.07 613.64,-740.29 657.01,-788 688.47,-822.61 735.86,-848.33 770.16,-863.84" />
<polygon points="768.93,-865.98 776.32,-866.57 770.92,-861.5 768.93,-865.98" />
</g>

<g id="node7" class="node tier-storage">
<path d="M1350.02,-1067.2C1350.02,-1067.2 1279.85,-1067.2 1279.85,-1067.2 1273.85,-1067.2 1267.85,-1061.2 1267.85,-1055.2 1267.85,-1055.2 1267.85,-1040.8 1267.85,-1040.8 1267.85,-1034.8 1273.85,-1028.8 1279.85,-1028.8 1279.85,-1028.8 1350.02,-1028.8 1350.02,-1028.8 1356.02,-1028.8 1362.02,-1034.8 1362.02,-1040.8 1362.02,-1040.8 1362.02,-1055.2 1362.02,-1055.2 1362.02,-1061.2 1356.02,-1067.2 1350.02,-1067.2" />
<text xml:space="preserve" text-anchor="middle" x="1314.94" y="-1049.55" font-family="Helvetica,sans-Serif" font-size="11.00">fraud adapter</text>
<text xml:space="preserve" text-anchor="middle" x="1314.94" y="-1037.55" font-family="Helvetica,sans-Serif" font-size="11.00">LightGBM .lgb</text>
</g>

<g id="edge7" class="edge">
<path d="M1362.28,-1048C1401.49,-1048 1459.09,-1048 1508.94,-1048" />
<polygon points="1508.67,-1050.45 1515.67,-1048 1508.67,-1045.55 1508.67,-1050.45" />
</g>

<g id="node8" class="node tier-storage">
<path d="M1364.27,-1137.2C1364.27,-1137.2 1265.6,-1137.2 1265.6,-1137.2 1259.6,-1137.2 1253.6,-1131.2 1253.6,-1125.2 1253.6,-1125.2 1253.6,-1110.8 1253.6,-1110.8 1253.6,-1104.8 1259.6,-1098.8 1265.6,-1098.8 1265.6,-1098.8 1364.27,-1098.8 1364.27,-1098.8 1370.27,-1098.8 1376.27,-1104.8 1376.27,-1110.8 1376.27,-1110.8 1376.27,-1125.2 1376.27,-1125.2 1376.27,-1131.2 1370.27,-1137.2 1364.27,-1137.2" />
<text xml:space="preserve" text-anchor="middle" x="1314.94" y="-1119.55" font-family="Helvetica,sans-Serif" font-size="11.00">code-agent adapter</text>
<text xml:space="preserve" text-anchor="middle" x="1314.94" y="-1107.55" font-family="Helvetica,sans-Serif" font-size="11.00">Sonnet 4.6 endpoint</text>
</g>

<g id="edge8" class="edge">
<path d="M1376.61,-1103.58C1417.83,-1093.78 1473.1,-1080.65 1519.56,-1069.61" />
<polygon points="1520.11,-1071.99 1526.36,-1067.99 1518.98,-1067.23 1520.11,-1071.99" />
</g>

<g id="node9" class="node tier-storage">
<path d="M1356.77,-1207.2C1356.77,-1207.2 1273.1,-1207.2 1273.1,-1207.2 1267.1,-1207.2 1261.1,-1201.2 1261.1,-1195.2 1261.1,-1195.2 1261.1,-1180.8 1261.1,-1180.8 1261.1,-1174.8 1267.1,-1168.8 1273.1,-1168.8 1273.1,-1168.8 1356.77,-1168.8 1356.77,-1168.8 1362.77,-1168.8 1368.77,-1174.8 1368.77,-1180.8 1368.77,-1180.8 1368.77,-1195.2 1368.77,-1195.2 1368.77,-1201.2 1362.77,-1207.2 1356.77,-1207.2" />
<text xml:space="preserve" text-anchor="middle" x="1314.94" y="-1189.55" font-family="Helvetica,sans-Serif" font-size="11.00">research adapter</text>
<text xml:space="preserve" text-anchor="middle" x="1314.94" y="-1177.55" font-family="Helvetica,sans-Serif" font-size="11.00">stub</text>
</g>

<g id="edge9" class="edge">
<path d="M1363.75,-1168.3C1375.2,-1163.43 1387.34,-1158.13 1398.52,-1153 1456.61,-1126.33 1522.42,-1093.27 1565.09,-1071.46" />
<polygon points="1566.05,-1073.71 1571.17,-1068.34 1563.82,-1069.35 1566.05,-1073.71" />
</g>

<g id="node12" class="node tier-kernel">
<path d="M348.59,-400.2C348.59,-400.2 212.42,-400.2 212.42,-400.2 206.42,-400.2 200.42,-394.2 200.42,-388.2 200.42,-388.2 200.42,-361.8 200.42,-361.8 200.42,-355.8 206.42,-349.8 212.42,-349.8 212.42,-349.8 348.59,-349.8 348.59,-349.8 354.59,-349.8 360.59,-355.8 360.59,-361.8 360.59,-361.8 360.59,-388.2 360.59,-388.2 360.59,-394.2 354.59,-400.2 348.59,-400.2" />
<text xml:space="preserve" text-anchor="middle" x="280.51" y="-382.55" font-family="Helvetica,sans-Serif" font-size="11.00">held-out tests</text>
<text xml:space="preserve" text-anchor="middle" x="280.51" y="-370.55" font-family="Helvetica,sans-Serif" font-size="11.00">fresh assertions post-submit</text>
<text xml:space="preserve" text-anchor="middle" x="280.51" y="-358.55" font-family="Helvetica,sans-Serif" font-size="11.00">weight 1.0</text>
</g>

<g id="edge32" class="edge">
<path d="M1516.92,-1015C1459.65,-997.68 1384.43,-980 1315.94,-980 560.3,-980 560.3,-980 560.3,-980 326.32,-980 288.04,-602.14 282.28,-443.66" />
<polygon points="284.74,-443.94 282.06,-437.02 279.84,-444.1 284.74,-443.94" />
<text xml:space="preserve" text-anchor="middle" x="914.18" y="-981.2" font-family="Helvetica,sans-Serif" font-size="9.00">output only</text>
</g>

<g id="node11" class="node tier-data">
<path d="M118.42,-230.2C118.42,-230.2 34,-230.2 34,-230.2 28,-230.2 22,-224.2 22,-218.2 22,-218.2 22,-203.8 22,-203.8 22,-197.8 28,-191.8 34,-191.8 34,-191.8 118.42,-191.8 118.42,-191.8 124.42,-191.8 130.42,-197.8 130.42,-203.8 130.42,-203.8 130.42,-218.2 130.42,-218.2 130.42,-224.2 124.42,-230.2 118.42,-230.2" />
<text xml:space="preserve" text-anchor="middle" x="76.21" y="-212.55" font-family="Helvetica,sans-Serif" font-size="11.00">Sealed Spec</text>
<text xml:space="preserve" text-anchor="middle" x="76.21" y="-200.55" font-family="Helvetica,sans-Serif" font-size="11.00">YAML obligations</text>
</g>

<g id="edge10" class="edge">
<path d="M93.21,-230.33C115.35,-256.24 157.48,-302.6 200.42,-334 205.8,-337.94 211.62,-341.71 217.56,-345.27" />
<polygon points="215.99,-347.19 223.28,-348.57 218.45,-342.95 215.99,-347.19" />
<text xml:space="preserve" text-anchor="middle" x="165.42" y="-317.58" font-family="Helvetica,sans-Serif" font-size="9.00">derives</text>
</g>

<g id="node13" class="node tier-kernel">
<path d="M346.72,-72.2C346.72,-72.2 214.3,-72.2 214.3,-72.2 208.3,-72.2 202.3,-66.2 202.3,-60.2 202.3,-60.2 202.3,-33.8 202.3,-33.8 202.3,-27.8 208.3,-21.8 214.3,-21.8 214.3,-21.8 346.72,-21.8 346.72,-21.8 352.72,-21.8 358.72,-27.8 358.72,-33.8 358.72,-33.8 358.72,-60.2 358.72,-60.2 358.72,-66.2 352.72,-72.2 346.72,-72.2" />
<text xml:space="preserve" text-anchor="middle" x="280.51" y="-54.55" font-family="Helvetica,sans-Serif" font-size="11.00">metamorphic relations</text>
<text xml:space="preserve" text-anchor="middle" x="280.51" y="-42.55" font-family="Helvetica,sans-Serif" font-size="11.00">invariants under transforms</text>
<text xml:space="preserve" text-anchor="middle" x="280.51" y="-30.55" font-family="Helvetica,sans-Serif" font-size="11.00">weight 1.0</text>
</g>

<g id="edge11" class="edge">
<path d="M93.21,-191.67C115.35,-165.76 157.48,-119.4 200.42,-88 205.8,-84.06 211.62,-80.29 217.56,-76.73" />
<polygon points="218.45,-79.05 223.28,-73.43 215.99,-74.81 218.45,-79.05" />
</g>

<g id="node14" class="node tier-kernel">
<path d="M336.22,-154.2C336.22,-154.2 224.8,-154.2 224.8,-154.2 218.8,-154.2 212.8,-148.2 212.8,-142.2 212.8,-142.2 212.8,-115.8 212.8,-115.8 212.8,-109.8 218.8,-103.8 224.8,-103.8 224.8,-103.8 336.22,-103.8 336.22,-103.8 342.22,-103.8 348.22,-109.8 348.22,-115.8 348.22,-115.8 348.22,-142.2 348.22,-142.2 348.22,-148.2 342.22,-154.2 336.22,-154.2" />
<text xml:space="preserve" text-anchor="middle" x="280.51" y="-136.55" font-family="Helvetica,sans-Serif" font-size="11.00">differential cross-family</text>
<text xml:space="preserve" text-anchor="middle" x="280.51" y="-124.55" font-family="Helvetica,sans-Serif" font-size="11.00">Haiku vs Sonnet</text>
<text xml:space="preserve" text-anchor="middle" x="280.51" y="-112.55" font-family="Helvetica,sans-Serif" font-size="11.00">weight 1.0</text>
</g>

<g id="edge12" class="edge">
<path d="M125.66,-191.36C150.45,-181.31 181.1,-168.89 208.5,-157.78" />
<polygon points="209.16,-160.16 214.73,-155.26 207.32,-155.62 209.16,-160.16" />
</g>

<g id="node15" class="node tier-kernel">
<path d="M340.72,-236.2C340.72,-236.2 220.3,-236.2 220.3,-236.2 214.3,-236.2 208.3,-230.2 208.3,-224.2 208.3,-224.2 208.3,-197.8 208.3,-197.8 208.3,-191.8 214.3,-185.8 220.3,-185.8 220.3,-185.8 340.72,-185.8 340.72,-185.8 346.72,-185.8 352.72,-191.8 352.72,-197.8 352.72,-197.8 352.72,-224.2 352.72,-224.2 352.72,-230.2 346.72,-236.2 340.72,-236.2" />
<text xml:space="preserve" text-anchor="middle" x="280.51" y="-218.55" font-family="Helvetica,sans-Serif" font-size="11.00">property-based fuzz</text>
<text xml:space="preserve" text-anchor="middle" x="280.51" y="-206.55" font-family="Helvetica,sans-Serif" font-size="11.00">random samples vs spec</text>
<text xml:space="preserve" text-anchor="middle" x="280.51" y="-194.55" font-family="Helvetica,sans-Serif" font-size="11.00">weight 1.0</text>
</g>

<g id="edge13" class="edge">
<path d="M130.89,-211C151.95,-211 176.56,-211 199.62,-211" />
<polygon points="199.53,-213.45 206.53,-211 199.53,-208.55 199.53,-213.45" />
</g>

<g id="node16" class="node tier-kernel">
<path d="M326.84,-318.2C326.84,-318.2 234.17,-318.2 234.17,-318.2 228.17,-318.2 222.17,-312.2 222.17,-306.2 222.17,-306.2 222.17,-279.8 222.17,-279.8 222.17,-273.8 228.17,-267.8 234.17,-267.8 234.17,-267.8 326.84,-267.8 326.84,-267.8 332.84,-267.8 338.84,-273.8 338.84,-279.8 338.84,-279.8 338.84,-306.2 338.84,-306.2 338.84,-312.2 332.84,-318.2 326.84,-318.2" />
<text xml:space="preserve" text-anchor="middle" x="280.51" y="-300.55" font-family="Helvetica,sans-Serif" font-size="11.00">LLM judge  ·  Opus</text>
<text xml:space="preserve" text-anchor="middle" x="280.51" y="-288.55" font-family="Helvetica,sans-Serif" font-size="11.00">semantic read</text>
<text xml:space="preserve" text-anchor="middle" x="280.51" y="-276.55" font-family="Helvetica,sans-Serif" font-size="11.00">weight 0.5</text>
</g>

<g id="edge14" class="edge">
<path d="M125.66,-230.64C152.17,-241.38 185.37,-254.84 214.14,-266.5" />
<polygon points="212.92,-268.65 220.33,-269.01 214.76,-264.11 212.92,-268.65" />
</g>

<g id="node17" class="node tier-control foundational">
<path d="M623.01,-320.2C623.01,-320.2 499.59,-320.2 499.59,-320.2 493.59,-320.2 487.59,-314.2 487.59,-308.2 487.59,-308.2 487.59,-281.8 487.59,-281.8 487.59,-275.8 493.59,-269.8 499.59,-269.8 499.59,-269.8 623.01,-269.8 623.01,-269.8 629.01,-269.8 635.01,-275.8 635.01,-281.8 635.01,-281.8 635.01,-308.2 635.01,-308.2 635.01,-314.2 629.01,-320.2 623.01,-320.2" />
<text xml:space="preserve" text-anchor="middle" x="561.3" y="-302.55" font-family="Helvetica,sans-Serif" font-size="11.00">Aggregator</text>
<text xml:space="preserve" text-anchor="middle" x="561.3" y="-290.55" font-family="Helvetica,sans-Serif" font-size="11.00">PASS-weight sum &gt;= 2.0</text>
<text xml:space="preserve" text-anchor="middle" x="561.3" y="-278.55" font-family="Helvetica,sans-Serif" font-size="11.00">=&gt; pass; else caught</text>
</g>

<g id="edge15" class="edge">
<path d="M361.04,-383.97C394.84,-384.99 434.09,-382.36 467.59,-370 491.98,-361 514.75,-342.78 531.62,-326.56" />
<polygon points="533.23,-328.41 536.48,-321.75 529.78,-324.93 533.23,-328.41" />
</g>

<g id="edge16" class="edge">
<path d="M334.69,-72.66C343.52,-77.46 352.44,-82.66 360.59,-88 411.84,-121.61 424.79,-131.12 467.59,-175 494.47,-202.56 520.9,-237.8 538.62,-262.94" />
<polygon points="536.49,-264.18 542.51,-268.51 540.51,-261.37 536.49,-264.18" />
</g>

<g id="edge17" class="edge">
<path d="M331.98,-154.52C341.55,-159.54 351.42,-164.85 360.59,-170 414.86,-200.5 475.19,-238.92 515.19,-265.06" />
<polygon points="513.46,-266.85 520.66,-268.64 516.14,-262.75 513.46,-266.85" />
</g>

<g id="edge18" class="edge">
<path d="M352.94,-232.52C391.43,-244.12 439.07,-258.47 478.98,-270.5" />
<polygon points="478.25,-272.84 485.66,-272.51 479.66,-268.15 478.25,-272.84" />
</g>

<g id="edge19" class="edge">
<path d="M339,-318.48C346.66,-323.09 354.09,-328.27 360.59,-334 372.33,-344.36 366.73,-355.72 380.59,-363 397.71,-371.99 449.22,-369.02 467.59,-363 490.2,-355.6 511.85,-340.35 528.53,-326.17" />
<polygon points="530.11,-328.04 533.77,-321.59 526.89,-324.35 530.11,-328.04" />
</g>

<g id="edge33" class="edge">
<path d="M597.59,-320.66C632.96,-346.51 688.85,-387.69 736.51,-424.25 751.25,-435.56 767.4,-448.31 781.05,-459.2" />
<polygon points="779.4,-461.02 786.4,-463.48 782.46,-457.2 779.4,-461.02" />
<text xml:space="preserve" text-anchor="middle" x="696.76" y="-425.45" font-family="Helvetica,sans-Serif" font-size="9.00">verdict + audit trace</text>
</g>

<g id="edge34" class="edge">
<path d="M487.27,-302.55C455.3,-309.91 420.77,-324.26 401.13,-352.12 345.82,-430.57 452.99,-527.54 517.49,-575.79" />
<polygon points="515.67,-577.49 522.76,-579.68 518.58,-573.55 515.67,-577.49" />
<text xml:space="preserve" text-anchor="middle" x="424.09" y="-353.32" font-family="Helvetica,sans-Serif" font-size="9.00">log undetected hacks</text>
</g>

<g id="edge39" class="edge">
<path d="M635.36,-296.23C728.26,-297.8 887.08,-300.48 974.42,-301.95" />
<polygon points="974.34,-304.4 981.38,-302.07 974.43,-299.5 974.34,-304.4" />
<text xml:space="preserve" text-anchor="middle" x="814.1" y="-301.38" font-family="Helvetica,sans-Serif" font-size="9.00">every verdict</text>
</g>

<g id="node21" class="node tier-compute foundational">
<path d="M1086.48,-849.2C1086.48,-849.2 988.56,-849.2 988.56,-849.2 982.56,-849.2 976.56,-843.2 976.56,-837.2 976.56,-837.2 976.56,-810.8 976.56,-810.8 976.56,-804.8 982.56,-798.8 988.56,-798.8 988.56,-798.8 1086.48,-798.8 1086.48,-798.8 1092.48,-798.8 1098.48,-804.8 1098.48,-810.8 1098.48,-810.8 1098.48,-837.2 1098.48,-837.2 1098.48,-843.2 1092.48,-849.2 1086.48,-849.2" />
<text xml:space="preserve" text-anchor="middle" x="1037.52" y="-831.55" font-family="Helvetica,sans-Serif" font-size="11.00">Retrainer</text>
<text xml:space="preserve" text-anchor="middle" x="1037.52" y="-819.55" font-family="Helvetica,sans-Serif" font-size="11.00">LightGBM.fit() OR</text>
<text xml:space="preserve" text-anchor="middle" x="1037.52" y="-807.55" font-family="Helvetica,sans-Serif" font-size="11.00">agent_configs patch</text>
</g>

<g id="edge20" class="edge">
<path d="M858.58,-814.36C889.71,-816.04 932.25,-818.35 967.94,-820.28" />
<polygon points="967.74,-822.73 974.86,-820.66 968.01,-817.83 967.74,-822.73" />
</g>

<g id="edge21" class="edge">
<path d="M866.45,-761.79C896.85,-772.91 935.72,-787.13 968.62,-799.16" />
<polygon points="967.58,-801.39 974.99,-801.49 969.26,-796.79 967.58,-801.39" />
</g>

<g id="edge22" class="edge">
<path d="M850.67,-871.84C882.28,-863.7 929.37,-851.58 968.24,-841.58" />
<polygon points="968.77,-843.97 974.94,-839.85 967.55,-839.22 968.77,-843.97" />
</g>

<g id="node22" class="node tier-storage foundational">
<path d="M1372.52,-869.2C1372.52,-869.2 1257.35,-869.2 1257.35,-869.2 1251.35,-869.2 1245.35,-863.2 1245.35,-857.2 1245.35,-857.2 1245.35,-830.8 1245.35,-830.8 1245.35,-824.8 1251.35,-818.8 1257.35,-818.8 1257.35,-818.8 1372.52,-818.8 1372.52,-818.8 1378.52,-818.8 1384.52,-824.8 1384.52,-830.8 1384.52,-830.8 1384.52,-857.2 1384.52,-857.2 1384.52,-863.2 1378.52,-869.2 1372.52,-869.2" />
<text xml:space="preserve" text-anchor="middle" x="1314.94" y="-851.55" font-family="Helvetica,sans-Serif" font-size="11.00">Held-out validator</text>
<text xml:space="preserve" text-anchor="middle" x="1314.94" y="-839.55" font-family="Helvetica,sans-Serif" font-size="11.00">fixed attack set</text>
<text xml:space="preserve" text-anchor="middle" x="1314.94" y="-827.55" font-family="Helvetica,sans-Serif" font-size="11.00">never seen by proposer</text>
</g>

<g id="edge23" class="edge">
<path d="M1098.96,-828.39C1139.42,-831.33 1193.04,-835.22 1236.61,-838.38" />
<polygon points="1236.23,-840.81 1243.39,-838.88 1236.59,-835.93 1236.23,-840.81" />
</g>

<g id="edge38" class="edge">
<path stroke-dasharray="5,2" d="M1369.13,-869.56C1406.39,-888.43 1456.64,-915.86 1497.52,-945.25 1524.04,-964.32 1551.19,-988.83 1572.23,-1009.12" />
<polygon points="1570.46,-1010.82 1577.19,-1013.95 1573.88,-1007.31 1570.46,-1010.82" />
<text xml:space="preserve" text-anchor="middle" x="1454.77" y="-946.45" font-family="Helvetica,sans-Serif" font-size="9.00">retrain / patch</text>
</g>

<g id="node24" class="node tier-observability foundational">
<path d="M1380.02,-246.2C1380.02,-246.2 1249.85,-246.2 1249.85,-246.2 1243.85,-246.2 1237.85,-240.2 1237.85,-234.2 1237.85,-234.2 1237.85,-195.8 1237.85,-195.8 1237.85,-189.8 1243.85,-183.8 1249.85,-183.8 1249.85,-183.8 1380.02,-183.8 1380.02,-183.8 1386.02,-183.8 1392.02,-189.8 1392.02,-195.8 1392.02,-195.8 1392.02,-234.2 1392.02,-234.2 1392.02,-240.2 1386.02,-246.2 1380.02,-246.2" />
<text xml:space="preserve" text-anchor="middle" x="1314.94" y="-228.55" font-family="Helvetica,sans-Serif" font-size="11.00">Dashboard</text>
<text xml:space="preserve" text-anchor="middle" x="1314.94" y="-216.55" font-family="Helvetica,sans-Serif" font-size="11.00">undetected-hack rate</text>
<text xml:space="preserve" text-anchor="middle" x="1314.94" y="-204.55" font-family="Helvetica,sans-Serif" font-size="11.00">val-vs-heldout gap</text>
<text xml:space="preserve" text-anchor="middle" x="1314.94" y="-192.55" font-family="Helvetica,sans-Serif" font-size="11.00">cost/hack  ·  human-min/1k</text>
</g>

<g id="edge24" class="edge">
<path d="M1091.95,-285.93C1130.98,-273.46 1184.69,-256.3 1229.5,-241.98" />
<polygon points="1230.11,-244.36 1236.03,-239.89 1228.62,-239.69 1230.11,-244.36" />
</g>

<g id="node25" class="node tier-observability">
<path d="M1363.52,-328.2C1363.52,-328.2 1266.35,-328.2 1266.35,-328.2 1260.35,-328.2 1254.35,-322.2 1254.35,-316.2 1254.35,-316.2 1254.35,-289.8 1254.35,-289.8 1254.35,-283.8 1260.35,-277.8 1266.35,-277.8 1266.35,-277.8 1363.52,-277.8 1363.52,-277.8 1369.52,-277.8 1375.52,-283.8 1375.52,-289.8 1375.52,-289.8 1375.52,-316.2 1375.52,-316.2 1375.52,-322.2 1369.52,-328.2 1363.52,-328.2" />
<text xml:space="preserve" text-anchor="middle" x="1314.94" y="-310.55" font-family="Helvetica,sans-Serif" font-size="11.00">Co-evolution curves</text>
<text xml:space="preserve" text-anchor="middle" x="1314.94" y="-298.55" font-family="Helvetica,sans-Serif" font-size="11.00">ASR  ·  detection</text>
<text xml:space="preserve" text-anchor="middle" x="1314.94" y="-286.55" font-family="Helvetica,sans-Serif" font-size="11.00">red &lt;-&gt; blue rounds</text>
</g>

<g id="edge25" class="edge">
<path d="M1091.95,-303C1135.77,-303 1198.11,-303 1245.57,-303" />
<polygon points="1245.44,-305.45 1252.44,-303 1245.44,-300.55 1245.44,-305.45" />
</g>

<g id="node26" class="node tier-observability">
<path d="M1368.4,-398.2C1368.4,-398.2 1261.48,-398.2 1261.48,-398.2 1255.48,-398.2 1249.48,-392.2 1249.48,-386.2 1249.48,-386.2 1249.48,-371.8 1249.48,-371.8 1249.48,-365.8 1255.48,-359.8 1261.48,-359.8 1261.48,-359.8 1368.4,-359.8 1368.4,-359.8 1374.4,-359.8 1380.4,-365.8 1380.4,-371.8 1380.4,-371.8 1380.4,-386.2 1380.4,-386.2 1380.4,-392.2 1374.4,-398.2 1368.4,-398.2" />
<text xml:space="preserve" text-anchor="middle" x="1314.94" y="-380.55" font-family="Helvetica,sans-Serif" font-size="11.00">Audit trace per verdict</text>
<text xml:space="preserve" text-anchor="middle" x="1314.94" y="-368.55" font-family="Helvetica,sans-Serif" font-size="11.00">1-click replay</text>
</g>

<g id="edge26" class="edge">
<path d="M1091.95,-317.74C1134.39,-329.45 1194.18,-345.95 1241.02,-358.88" />
<polygon points="1240.16,-361.18 1247.55,-360.68 1241.46,-356.46 1240.16,-361.18" />
</g>

<g id="node27" class="node tier-data">
<path d="M1648.44,-334.2C1648.44,-334.2 1574.52,-334.2 1574.52,-334.2 1568.52,-334.2 1562.52,-328.2 1562.52,-322.2 1562.52,-322.2 1562.52,-283.8 1562.52,-283.8 1562.52,-277.8 1568.52,-271.8 1574.52,-271.8 1574.52,-271.8 1648.44,-271.8 1648.44,-271.8 1654.44,-271.8 1660.44,-277.8 1660.44,-283.8 1660.44,-283.8 1660.44,-322.2 1660.44,-322.2 1660.44,-328.2 1654.44,-334.2 1648.44,-334.2" />
<text xml:space="preserve" text-anchor="middle" x="1611.48" y="-316.55" font-family="Helvetica,sans-Serif" font-size="11.00">Artifacts</text>
<text xml:space="preserve" text-anchor="middle" x="1611.48" y="-304.55" font-family="Helvetica,sans-Serif" font-size="11.00">seeded corpus</text>
<text xml:space="preserve" text-anchor="middle" x="1611.48" y="-292.55" font-family="Helvetica,sans-Serif" font-size="11.00">leaderboard</text>
<text xml:space="preserve" text-anchor="middle" x="1611.48" y="-280.55" font-family="Helvetica,sans-Serif" font-size="11.00">SR 11-7 report</text>
</g>

<g id="edge28" class="edge">
<path d="M1392.17,-237.78C1442.82,-252.91 1508.22,-272.45 1554.18,-286.18" />
<polygon points="1553.38,-288.5 1560.79,-288.15 1554.78,-283.8 1553.38,-288.5" />
</g>

<g id="node28" class="node tier-control foundational">
<path d="M1677.32,-240.2C1677.32,-240.2 1545.65,-240.2 1545.65,-240.2 1539.65,-240.2 1533.65,-234.2 1533.65,-228.2 1533.65,-228.2 1533.65,-201.8 1533.65,-201.8 1533.65,-195.8 1539.65,-189.8 1545.65,-189.8 1545.65,-189.8 1677.32,-189.8 1677.32,-189.8 1683.32,-189.8 1689.32,-195.8 1689.32,-201.8 1689.32,-201.8 1689.32,-228.2 1689.32,-228.2 1689.32,-234.2 1683.32,-240.2 1677.32,-240.2" />
<text xml:space="preserve" text-anchor="middle" x="1611.48" y="-222.55" font-family="Helvetica,sans-Serif" font-size="11.00">Halt-certification</text>
<text xml:space="preserve" text-anchor="middle" x="1611.48" y="-210.55" font-family="Helvetica,sans-Serif" font-size="11.00">white-box recall &lt; red line</text>
<text xml:space="preserve" text-anchor="middle" x="1611.48" y="-198.55" font-family="Helvetica,sans-Serif" font-size="11.00">=&gt; refuse new POST /runs</text>
</g>

<g id="edge27" class="edge">
<path d="M1392.17,-215C1432.84,-215 1483.01,-215 1525,-215" />
<polygon points="1524.77,-217.45 1531.77,-215 1524.77,-212.55 1524.77,-217.45" />
</g>

<g id="edge29" class="edge">
<path d="M1375.9,-303C1428,-303 1502.92,-303 1553.98,-303" />
<polygon points="1553.76,-305.45 1560.76,-303 1553.76,-300.55 1553.76,-305.45" />
</g>

<g id="edge30" class="edge">
<path d="M1380.57,-362.32C1432.55,-348.91 1504.82,-330.26 1554.39,-317.47" />
<polygon points="1554.81,-319.89 1560.98,-315.77 1553.59,-315.15 1554.81,-319.89" />
</g>

<g id="edge41" class="edge edge-ctrl">
<path stroke-dasharray="5,2" d="M1533.46,-192C1457.9,-172.56 1339.53,-150.46 1237.85,-168 1107.15,-190.55 1060.87,-185.93 956.68,-268 890.51,-320.12 845.39,-412.1 825.93,-457.74" />
<polygon points="823.73,-456.64 823.28,-464.04 828.25,-458.53 823.73,-456.64" />
<text xml:space="preserve" text-anchor="middle" x="1178.1" y="-185.23" font-family="Helvetica,sans-Serif" font-size="9.00">blocks launch</text>
</g>
</g>
</svg>